<?xml version="1.0" encoding="utf-8"?>
<!-- Generator: Adobe Illustrator 25.0.1, SVG Export Plug-In . SVG Version: 6.00 Build 0)  -->
<svg version="1.1" id="Layer_1" xmlns="http://www.w3.org/2000/svg" xmlns:xlink="http://www.w3.org/1999/xlink" x="0px" y="0px"
	 viewBox="0 0 1440 49.1" style="enable-background:new 0 0 1440 49.1;" xml:space="preserve">
<style type="text/css">
	.st0{fill-rule:evenodd;clip-rule:evenodd;fill:#04063F;}
</style>
<path class="st0" d="M1415.2,3.3C1348.1,8.7,1305,27.6,1276,36.2c-33.2,9.8-82.8,16.5-152.1,0l-95.5-19.9
	c-45.2-9.4-91.8-10.4-137.3-2.8l-102.1,17c-45.6,7.6-92.1,6.7-137.4-2.8L556,7.8c-50.2-10.4-101.9-10.4-152.1,0l-95.5,19.9
	c-29,6.6-52.6,7.8-68.5,7.8c-82-0.4-125.3-35.4-225.1-34C8.4,1.6,3.2,1.8,0,2v47.1h1440V2C1434.2,2.1,1425.6,2.5,1415.2,3.3z"/>
</svg>
