<?xml version="1.0" encoding="utf-8"?>
<!-- Generator: Adobe Illustrator 25.4.1, SVG Export Plug-In . SVG Version: 6.00 Build 0)  -->
<svg version="1.1" id="Layer_1" xmlns="http://www.w3.org/2000/svg" xmlns:xlink="http://www.w3.org/1999/xlink" x="0px" y="0px"
	 viewBox="0 0 375 226" style="enable-background:new 0 0 375 226;" xml:space="preserve">
<style type="text/css">
	.st0{fill:#FFFFFF;}
	.st1{fill:#342999;}
	.st2{fill:#040447;}
	.st3{fill:#E59373;}
	.st4{fill:#0B1F31;}
	.st5{fill:#EA4444;}
	.st6{fill:#F7514D;}
	.st7{opacity:0.3;}
	.st8{fill:#D17B5D;}
	.st9{fill:#BBCFCD;}
	.st10{fill:#CC705A;}
	.st11{fill:#E9E9F2;}
	.st12{fill:#14144C;}
</style>
<g id="Homepage">
	<g id="Homepage---Mobile" transform="translate(0.000000, -552.000000)">
		<g id="hero-illustration-girl-whitebg-mobile" transform="translate(0.000000, 552.000000)">
			<path id="Path" class="st0" d="M364.2,44.6c-6.1,3.9-13.1,6.4-22.1,9.7c-12,4.3-16.6,4.6-27.9,8.6c-5.6,2-14.6,5.1-24,10.7
				c-7.9,4.7-28.2,16.7-38.6,40.6c-3.8,8.6-5.1,16.3-5.7,21.2c-3.8,16-3,19.1-5.7,22.3c-0.2,0.3-0.6,0.6-0.8,0.9
				c-0.1,0.1-0.2,0.2-0.3,0.3c-0.2,0.2-0.3,0.4-0.5,0.6c-0.1,0.1-0.2,0.2-0.4,0.3c-0.2,0.2-0.3,0.3-0.6,0.5
				c-0.1,0.1-0.3,0.2-0.4,0.3c-0.2,0.2-0.3,0.3-0.6,0.4c-0.1,0.1-0.3,0.2-0.4,0.3c-0.2,0.1-0.3,0.3-0.6,0.4
				c-0.1,0.1-0.3,0.2-0.5,0.3c-0.2,0.1-0.3,0.2-0.5,0.3c-0.2,0.1-0.4,0.2-0.6,0.3c-0.2,0.1-0.4,0.2-0.6,0.3
				c-0.2,0.1-0.4,0.2-0.6,0.3c-0.2,0.1-0.4,0.2-0.6,0.3c-0.2,0.1-0.4,0.2-0.6,0.3c-0.2,0.1-0.4,0.2-0.6,0.2
				c-0.2,0.1-0.4,0.2-0.6,0.2c-0.2,0.1-0.4,0.2-0.6,0.2c-0.2,0.1-0.4,0.2-0.6,0.2s-0.4,0.1-0.6,0.2c-0.2,0.1-0.4,0.1-0.7,0.2
				c-0.2,0.1-0.4,0.1-0.6,0.2c-0.2,0.1-0.5,0.1-0.8,0.2c-0.2,0.1-0.4,0.1-0.6,0.1c-0.2,0.1-0.5,0.1-0.8,0.2
				c-0.2,0.1-0.4,0.1-0.6,0.1c-0.2,0.1-0.5,0.1-0.8,0.1c-0.2,0.1-0.4,0.1-0.6,0.1c-0.2,0.1-0.6,0.1-0.9,0.1c-0.2,0-0.4,0.1-0.6,0.1
				c-0.3,0-0.6,0.1-0.9,0.1c-0.2,0-0.4,0.1-0.6,0.1c-0.3,0-0.6,0.1-0.9,0.1c-0.2,0-0.4,0-0.6,0c-0.3,0-0.6,0-1,0c-0.2,0-0.4,0-0.6,0
				c-0.3,0-0.7,0-1,0c-0.2,0-0.4,0-0.6,0c-0.4,0-0.7,0-1-0.1c-0.2,0-0.4,0-0.6,0c-0.3,0-0.7-0.1-1.1-0.1c-0.1,0-0.3,0-0.5-0.1
				c-0.3,0-0.8-0.1-1.1-0.1c-0.2,0-0.4-0.1-0.5-0.1c-0.4-0.1-0.8-0.1-1.2-0.1c-0.1,0-0.3-0.1-0.4-0.1c-0.4-0.1-0.8-0.1-1.2-0.2
				c-0.1,0-0.3-0.1-0.4-0.1c-0.4-0.1-0.9-0.1-1.2-0.2c-0.2,0-0.2-0.1-0.4-0.1c-0.4-0.1-0.8-0.1-1.3-0.2c-0.1,0-0.2-0.1-0.4-0.1
				c-0.4-0.1-0.9-0.2-1.4-0.2c-0.1,0-0.2-0.1-0.3-0.1c-0.5-0.1-1-0.2-1.4-0.3c-0.1,0-0.1-0.1-0.2-0.1c-0.5-0.1-1-0.2-1.5-0.3
				c-0.1,0-0.1,0-0.1-0.1c-0.5-0.1-1.1-0.2-1.6-0.3c-0.1,0-0.1,0-0.1,0c-0.5-0.1-1.1-0.2-1.6-0.4v-0.3H180
				c-18.8,4.1-36.9,4.7-45.2-5.3c-2.7-3.2-1.9-6.2-5.7-22.3c-0.6-4.9-2-12.6-5.7-21.2c-10.4-24-30.6-36-38.5-40.6
				c-9.4-5.6-18.5-8.7-24-10.7c-11.3-4-16-4.3-27.9-8.6c-9-3.3-16.1-5.8-22.1-9.7c-4.5-2.9-8-6.3-10.8-9.8V226h177.2h2.8l0,0
				c0.6,0,1.1,0,1.8,0h11.5c0.6,0,1.1,0,1.8,0h1.3h1.4H375V34.9C372.2,38.4,368.6,41.8,364.2,44.6z"/>
			<g id="Group" transform="translate(148.900652, -0.000000)">
				<path id="Path_00000100350671512687502960000003063396487409740966_" class="st1" d="M83,107.3c-6.9,2.8-15.7,2-21.8-2.4
					c-6.1-4.4-11.8-7.6-19.5-7.8c-4.8-0.2-9.4,1.9-14,3.1c-4,1-7.1,4.3-11.5,4.9c-5.8,0.8-11.7-2.8-14.3-7.9s-2-11.7,0.8-16.7
					c2.1-3.7,4.1-6.4,1.7-10.5c-0.5-0.9-1.2-1.7-1.5-2.7c-0.3-0.9-0.4-1.9-0.3-2.9C2.8,59,6.8,55,9.5,50.7c0.6-1,1.2-2.1,1.4-3.2
					c0.5-3-1.9-5.6-3.2-8.4c-4.1-9,3-19.2,9.8-24.6c4-3.2,8.9-4.5,13.3-7.1c2-1.2,3.8-2.7,5.9-3.8c3.5-2,7.3-2.1,11.2-1.5
					C59,3.6,71.7,11.7,74.3,23.4c1.8,7.9-1.1,17,6.7,22.5c2.3,1.7,5.3,2.7,6.9,5c3.4,5.1-1.6,12.6,1.5,17.9c0.7,1.2,1.8,2.1,2.7,3.1
					c5,5.2,7.6,12.7,6.9,19.8c-0.2,1.8-0.6,3.5-1.4,5c-1.2,2.1-3.2,3.6-5.2,5c-2.9,2.1-5.9,4.2-9.3,5.6C83,107.3,83,107.3,83,107.3z
					"/>
				<path id="Path_00000048478675737470773780000001910889373472047805_" class="st1" d="M1.8,85.4c-0.6-1.9,0.5-3.5,1.5-5.1
					c0.5-0.7,0.9-1.3,1.2-2c0.8-1.7,0.8-3.8-0.1-5.4c-0.4-1-1.1-1.7-1.8-2.6c-0.6-0.8-1.3-1.6-1.8-2.4c-1.1-2.1-1.2-4.6-0.2-6.7
					c1-2,2.7-3.5,4.4-4.9c0.3-0.3,0.8-0.6,1.1-0.9c1.5-1.3,4.8-4.8,3.6-9c-0.5-1.6-1.3-3-2.1-4.5c-0.3-0.5-0.6-1.1-0.9-1.6
					C5,37,4.1,33.8,4,30.8c-0.1-3.5,1-6.9,3.1-9.3c1.8-2.1,4.2-3.4,6.8-4.6c0.7-0.4,1.4-0.7,2.1-1.1c3.1-1.5,6.2-3.1,9.2-4.9
					c1.9-1.2,3.7-2.3,5.1-3.8c0.4-0.4,0.7-0.8,1.1-1.2c1.1-1.1,2-2.2,3.4-3c9.5-5.8,24.5-2.4,32.1,4.3c0.4,0.4,0.9,0.9,1.3,1.3
					c3.5,3.6,5.7,8,6.1,12c0.4,4,0.5,8,0.5,11.3c0,0.7,0,1.4-0.1,2c0,2.1-0.1,4,0.7,6.1c1.2,3.3,2.8,5.2,4.8,6.2
					c0.9,0.4,1.9,0.6,3,0.9c0.8,0.2,1.6,0.4,2.4,0.6c3.7,1.3,6.3,4.9,6.5,8.8c0.1,2.1-0.5,4.1-1.1,6.1c-0.2,0.9-0.6,1.8-0.8,2.7
					c-0.9,3.9-0.6,9.2,3.1,12.2l-0.4,0.5c-3.8-3.3-4.2-8.8-3.3-12.9c0.2-0.9,0.5-1.8,0.8-2.8c0.6-1.9,1.2-3.9,1.1-5.9
					c-0.1-3.6-2.6-7-6-8.2c-0.8-0.2-1.6-0.5-2.3-0.6c-1-0.2-2.2-0.5-3.2-1c-3-1.4-4.3-4.5-5.2-6.7S73.9,36,74,33.9c0-0.7,0-1.3,0-2
					c0-3.4-0.1-7.3-0.5-11.3c-0.4-3.8-2.5-8-5.9-11.6c-0.4-0.4-0.8-0.8-1.3-1.2c-7.3-6.6-22-9.9-31.2-4.2c-1.3,0.8-2.2,1.9-3.2,3
					c-0.4,0.4-0.7,0.8-1.1,1.2c-1.5,1.4-3.2,2.6-5.2,3.9c-2.9,1.9-6.1,3.4-9.2,4.9c-0.7,0.4-1.4,0.7-2.1,1.1
					c-2.5,1.2-4.9,2.5-6.6,4.4c-1.9,2.2-3,5.5-2.9,8.9c0.1,2.9,1,6,2.7,9.2c0.3,0.6,0.6,1.1,0.9,1.7c0.8,1.5,1.7,3,2.2,4.7
					c0.9,3.2-0.4,6.7-3.8,9.6c-0.4,0.3-0.8,0.6-1.1,1c-1.6,1.4-3.3,2.8-4.2,4.8c-0.9,1.9-0.8,4.2,0.2,6.1c0.5,0.8,1.1,1.6,1.7,2.3
					c0.7,0.9,1.4,1.7,1.9,2.7c0.9,1.9,0.9,4.2,0.1,6c-0.4,0.7-0.8,1.4-1.3,2.1c-1,1.5-1.9,2.9-1.5,4.5H1.8z"/>
			</g>
			<path id="Path_00000040573630445512821670000007241246911977418643_" class="st2" d="M277.8,184.3c-2,2.6-4.8,4.8-7.4,6.7
				c-14.5,10.1-31.9,17.1-49.1,21.5c-15.4,4-31.4,3.8-47.2,2.2c-10.8-1.1-21.4-4.4-31.8-7.4c-10.6-3.2-21.1-7-31.1-12
				c-7.8-4-14.9-8.9-16-18.2c-0.5-3.7,0.3-7.8,3.1-10.2c3.4-3,8.6-2.9,13.1-2.6c25.9,2,51.1,10.8,77.2,10.9
				c14.6,0.1,28.1-3.7,42.2-7.1c10.8-2.7,22.8-5.6,34.1-5C275.1,163.5,285.2,174.8,277.8,184.3z"/>
			<path id="Path_00000152234459508561454870000004461179375916016571_" class="st3" d="M154.9,162.4c-0.3-0.6-0.6-1.3-0.9-2
				c-3.1-7.1-5.5-14.6-6.9-22.1c-0.5-2.8-1-5.8-3.1-7.6c-2.9-2.6-8.6-2.2-12.1-1.8c-1.7,0.2-3.4,0.8-4.5,2.2
				c-1.7,2.2-1.5,7.3-1.6,10c-0.4,16.5,12.6,30.2,23.2,41.2c2.1,2.2,4.2,4.3,7.1,5.2c2.8,0.8,6.4-0.1,7.6-2.7
				c0.9-1.9,0.4-4.3-0.4-6.3c-1.2-3.6-3.1-6.8-5.2-9.9C156.8,166.6,155.8,164.6,154.9,162.4z"/>
			<path id="Path_00000020395016506849690760000001994336051345652621_" class="st4" d="M217.2,72.8c0.4,2.9,0.1,5.8-1.1,8.4
				c-3.4,7.1-11.9,8.5-19,8.8c-2.6,0.1-5.2,0-7.9-0.4c-2.3-0.3-4.4,0-6.8,0c-4.6-0.1-9.2-1.5-13.1-4c-1.9-1.2-3.7-2.8-4.7-4.8
				c-1.3-2.8-0.9-6.1-0.2-9.1c0.4-1.8,1-3.5,1.8-5c0.9-1.7,2.4-3.1,3.2-4.8c1.5-3.2,0.2-7.1,1.6-10.3c1.1-2.5,3.7-5.4,5.9-7
				c2.9-2.2,6.8-2.8,10.4-2.5s7.2,1.3,10.6,2.5c2.8,0.9,5.1,0.3,7.1,2.6c1.6,1.8,1.1,4.7,1.6,6.9C208.3,61.3,216.1,65.1,217.2,72.8z
				"/>
			<path id="Path_00000072258832403216074350000006559591095562851741_" class="st5" d="M166.9,105.2c-4.6,7.9-9.8,15.6-14.8,23.3
				c-2.8,4.3-5.6,8.7-7.1,13.6c-6.9-0.1-13.8-1.6-20.5-2.9c1.1-9.2,5.9-17.4,10.2-25.4c4.5-8.3,9.3-16.4,13.5-24.8
				c3.5-6.8,9.9-15.1,18.5-11c6.6,3.2,5.6,12.2,4.2,18.2C170.1,99.4,168.6,102.3,166.9,105.2z"/>
			<path id="Path_00000036974040178609997350000006556224359699627672_" class="st3" d="M218.9,162.4c0.3-0.6,0.6-1.3,0.9-2
				c3.1-7.1,5.5-14.6,6.9-22.1c0.5-2.8,1-5.8,3.1-7.6c2.9-2.6,8.5-2.2,12.1-1.8c1.7,0.2,3.4,0.8,4.4,2.2c1.7,2.2,1.5,7.3,1.6,10
				c0.4,16.5-12.7,30.2-23.2,41.2c-2.1,2.2-4.2,4.3-7.1,5.2c-2.8,0.8-6.4-0.1-7.6-2.7c-0.9-1.9-0.4-4.3,0.3-6.3
				c1.2-3.6,3.1-6.8,5.2-9.9C217,166.6,217.9,164.6,218.9,162.4z"/>
			<path id="Path_00000017476919350002205610000016276136028626568850_" class="st5" d="M206.9,105.2c4.6,7.9,9.8,15.6,14.8,23.3
				c2.8,4.3,5.6,8.7,7.1,13.6c6.9-0.1,13.8-1.6,20.6-2.9c-1.1-9.2-5.9-17.4-10.2-25.4c-4.5-8.3-9.3-16.4-13.5-24.8
				c-3.5-6.8-9.9-15.1-18.5-11c-6.6,3.2-5.6,12.2-4.2,18.2C203.6,99.4,205.2,102.3,206.9,105.2z"/>
			<path id="SVGID_1_" class="st6" d="M221.3,170c-1.9-5.1-4.8-9.2-6.4-14.5c-2.2-7.2-3.8-17.3-1.2-24.7c2.8-7.9,6.1-14.1,6.3-22.8
				c0.2-7.5-1.3-14.8-2.8-22.1c-1.5-7.2-2.2-9.3-9.2-10.4c-2.5-0.4-5-1.1-7.5-1.5c-4.2-0.8-8.6-1.1-12.9-1.1l0,0c-0.1,0-0.1,0-0.1,0
				s-0.1,0-0.2,0l0,0c-4.3,0-8.6,0.3-12.9,1.1c-2.5,0.4-5,1.2-7.5,1.5c-7.1,1.1-7.8,3.2-9.2,10.4c-1.5,7.3-3,14.6-2.9,22.1
				c0.2,8.8,3.6,15,6.3,22.8c2.6,7.4,1.1,17.5-1.2,24.7c-1.6,5.2-4.6,9.4-6.4,14.5c-0.2,0.4-0.3,0.8-0.2,1.2
				c0.1,0.6,0.6,0.8,1.1,1.1c9.4,4.9,19.9,6.4,30.2,7.2c0.9,0.1,1.8,0.1,2.7,0.2l0,0c0,0,0.1,0,0.2,0c0.1,0,0.1,0,0.2,0l0,0
				c0.9-0.1,1.8-0.1,2.6-0.2c10.3-0.8,20.8-2.2,30.2-7.2c0.5-0.2,1-0.5,1.1-1.1C221.6,170.9,221.4,170.4,221.3,170z"/>
			<path id="Path_00000162353898144372113170000017415494319841678007_" class="st3" d="M177.3,86.9c4.1,4.8,12.1,5.1,17.8,3.1
				c3.8-1.3,6.5-4.3,6.6-8.4c0.1-4.6-3.9-7.9-5-12.2c-0.6-2.5-0.5-5-0.4-7.5c0.1-2.9,0.1-5.8,0.2-8.7c-2.8-0.6-5.2-0.9-8.2-0.8
				c-2.5,0.1-5.1-0.1-7.6,0c-0.2,0-0.4,0.1-0.5,0.2c-0.2,0.2-0.2,0.3-0.2,0.5c-0.3,3.9,0,7.9-0.2,11.8c-0.2,3.6-1,7.2-3.1,10.2
				C173.9,78.9,174.6,83.8,177.3,86.9z"/>
			<g id="Group_00000000220054753647372270000002997404080002244494_" transform="translate(185.000000, 9.591382)" class="st7">
				<g id="Path_00000018947159279549267410000012428258531375399601_">
					<path class="st0" d="M0,1.7C2.1,0.6,4.4,0.1,6.8,0s4.8,0.2,7.1,0.7c4.6,1.1,8.9,3.4,12.4,6.8s5.8,7.8,6.4,12.5
						c0.4,2.4,0.2,4.8,0.2,7.1c0.1,2.4,0.2,4.7,1.2,6.7c1,2.1,2.7,3.8,4.5,5.1c1.9,1.3,4,2.5,6,3.7c1,0.6,2.1,1.2,2.8,2.3
						s0.9,2.3,0.9,3.5s-0.1,2.4-0.5,3.5c-0.3,1.2-0.8,2.2-1.3,3.3c-0.5,1.1-0.8,2.2-0.6,3.3c0.1,1.1,0.5,2.2,0.9,3.3
						c1,2.1,2.2,4.1,3.2,6.3s1.8,4.4,2,6.8c0.2,2.3-0.1,4.8-0.8,7c0.8-2.2,1-4.7,0.7-7c-0.2-2.3-1.1-4.5-2.1-6.7
						c-1-2.1-2.3-4.1-3.3-6.2c-0.5-1-1-2.2-1-3.5c-0.2-1.2,0.1-2.5,0.6-3.5c0.5-1.1,1-2.2,1.2-3.2c0.3-1.1,0.5-2.2,0.4-3.4
						c0-1.1-0.2-2.3-0.8-3.2c-0.6-0.9-1.6-1.5-2.6-2.1c-2-1.2-4.1-2.3-6-3.7c-2-1.4-3.7-3.1-4.8-5.3c-1-2.3-1.2-4.7-1.2-7.1
						c0-2.4,0.1-4.7-0.2-7c-0.6-4.6-2.9-8.9-6.1-12.2c-3.2-3.3-7.5-5.7-12.1-6.8c-2.2-0.6-4.6-0.9-6.9-0.9C4.4,0.2,2.1,0.7,0,1.7z"
						/>
				</g>
			</g>
			<path id="Path_00000059278444321533987890000007313973396500560309_" class="st8" d="M196.5,68.9c-0.4-2.2-0.4-4.6-0.4-6.9
				c0.1-2.9,0.1-5.8,0.2-8.7c-2.8-0.6-5.2-0.9-8.2-0.8c-2.5,0.1-5-0.1-7.5,0c-0.2,0-0.4,0.1-0.6,0.2c-0.2,0.2-0.2,0.3-0.2,0.5
				c-0.4,3.9,0,7.9-0.2,11.8c-0.1,1.1-0.2,2.2-0.4,3.3c0.4,0.4,0.8,0.7,1.2,1c3.1,2.3,7.3,3.1,11.1,2
				C193.3,70.8,195,69.9,196.5,68.9z"/>
			<path id="Path_00000136373811242731295350000006040310213652821145_" class="st3" d="M207.1,37.8c-0.1-3.9-0.6-7.5-1.7-10.5
				c-4.4-13-20.8-15.9-30.4-6.4c-10.8,10.6-6.2,35.5,5.4,44.1c3.1,2.3,7.3,3,11.1,2C202.7,63.7,207.4,49.8,207.1,37.8z"/>
			<path id="Path_00000072993186442839934440000009918374954232420753_" class="st8" d="M207.1,26.5c-3.5-13.3-19.6-17.5-29.9-8.6
				c-1.6,1.4-2.8,3-3.9,4.8c-1,1.5-2.4,2.7-3.2,4.4c-0.9,1.7-1.4,3.6-1.6,5.6c-0.2,1.9,0.4,3.5,0.5,5.3c-0.1-1.9,0.8-3.8,2.2-5
				c1.1-1,2.5-1.5,3.8-2.2s2.5-1.7,3-3c4.1,5.4,10.5,7,16.8,8.6c5.2,1.3,11.1,4.6,11.1,10.8c0,0.8,0.1,1,0.4,2
				c0.3-0.9,0.5-1.6,0.6-2.6c0.1-1,0.4-2,0.6-3c0.4-2,0.6-4.2,0.8-6.2C208.2,33.2,207.9,29.6,207.1,26.5z"/>
			<path id="Path_00000142887302532671605780000005694546448902865811_" class="st1" d="M210.1,49.3c1-0.8,1.8-2,2.3-3.2
				c1.4-4.1,1.2-8.7,1.1-13.1c-0.1-2.4-0.2-4.9-0.9-7.3c-0.8-2.5-2.1-4.8-3.8-6.8c-4.8-5.7-11.9-8.5-18.7-7.9
				c-2.8,0.2-4.8,1.6-7.1,2.7c-2.4,1.1-5.1,1.7-7.6,2.5c-2.8,1-5.8,2-8,3.9c-1.7,1.5-2.9,3.4-3.7,5.4c-1,2.4-1.1,5.1-0.8,7.7
				c0.2,2.1,0.5,4.4,1.4,6.4c0.9,1.9,2.9,3.1,4.6,4c-0.2-0.1-0.1-3.2-0.1-3.7c-0.1-2.7,0.1-5.5,0.9-8.1c0.8-2.5,2.4-4.1,4.6-5.6
				c0.8-0.6,1.7-1.2,2.4-2c0.4-0.4,1.9-2.2,1.7-2.8c1.2,2.6,3.1,5.4,5.4,7.1c4.4,3.3,9.4,5.6,14.5,7.6c0.3,0.2,0.8,0.3,1.1,0.5
				c1.4,0.5,2.8,1.2,3.9,2.2c2.6,2.3,2.8,5.8,2.6,9.1c0,0.4,0,0.7,0.1,1.1C206.6,50.4,209.1,50.1,210.1,49.3z"/>
			<polygon id="Path_00000054958483794570431120000001507885646644830643_" class="st9" points="139.9,126.5 139.1,128.4 
				235.6,128.4 234.6,126.3 			"/>
			<path id="Path_00000090263398854417660690000007591128280303680899_" class="st3" d="M186.9,221.3c3.6,0.8,7.4,1.1,10.8,1.8
				c1.5,0.2,3.1,0.6,4.6,0.7c2.4,0.2,4.9,0.2,7.3,0.2c1.8,0,3.6,0,5.4,0c0.9,0,2,0,2.9-0.4c1-0.6,1.6-1.6,2.2-2.6
				c1.1-2,2.5-3.9,3.4-6c0.6-1.2,0.8-2.3,1.6-3.4c0.8-1.1,1.6-2.5,1-3.8c-0.7-1.6-2.7-2-4.4-2c-1.5,0-2.9,0.1-4.4,0.2
				c-5.7,0.7-11.1,2.9-16.9,3.6c-3.6,0.4-7.3,0.1-11-0.1c-2.9-0.2-7.4-0.9-10,0.8c-1,0.7-2.7,2.3-2.8,3.6c-0.2,1.6,1.7,3.4,2.8,4.2
				C181.6,219.7,184.2,220.6,186.9,221.3z"/>
			<path id="Path_00000173158980617815198510000010482773533600270520_" class="st10" d="M223.4,215.1c0.1-0.1,0.1-0.1,0.1-0.2
				c0.6-1.2,0.8-2.3,1.6-3.4c0.8-1.1,1.5-2.5,1-3.8c-0.7-1.6-2.7-2-4.5-2c-1.4,0-2.9,0.1-4.3,0.2c-5.7,0.7-11.2,2.9-16.9,3.6
				c-3,0.3-6,0.2-9.1,0.1c-2.2,1-10,3.5-13.8,6.9c0.6,0.6,1.2,1.2,1.8,1.6c2.2,1.6,4.8,2.6,7.5,3.2c2.3,0.6,4.7,0.8,6.9,1.1
				c7.7-1.3,15.2-3.7,22.6-5.6C218.8,216.3,221.1,215.7,223.4,215.1z"/>
			<path id="Path_00000092444826388907424850000004976273600948028095_" class="st1" d="M228.9,189.4h-83.2l-5.9-61.9
				c-0.1-1.1,0.8-2,1.9-2H233c1.1,0,1.9,0.9,1.9,2L228.9,189.4z"/>
			<path id="Path_00000074423313902534447170000004099914605916841617_" class="st1" d="M199.4,223.4c3.2-0.3,7.2-0.9,9.4-3.3
				c1.6-1.8,2.3-4.2,2.3-6.6c0-2.4-1.9-4.2-4-5.4c5.5-2.9,10.8-2.9,15.8-1c0.6,0.2,1.1,0.5,1.6,0.8c6.8,4.4,2.3,12.8-3.2,15.8
				c-2.6,1.4-5.4,2-8.3,1.9c-2.3-0.1-3.8-0.3-6.1-0.6C203.9,224.7,202.6,224,199.4,223.4z"/>
			<path id="Path_00000085252278303054600790000017428444370493041290_" class="st11" d="M229.6,191.2H145l-6.1-61.9
				c-0.1-1.1,0.8-2,1.9-2h92.9c1.1,0,2,0.9,1.9,2L229.6,191.2z"/>
			<rect id="Rectangle" x="145" y="191.2" class="st1" width="84.5" height="3.8"/>
			<circle id="Oval" class="st1" cx="187.4" cy="158.9" r="5.9"/>
			<path id="Path_00000075145083963616650760000014812929742437909157_" class="st3" d="M167.6,198.6c5,2.9,10,5.9,15.1,8.6
				c0.1,0.1,0.2,0.1,0.3,0.2c2.2,1,4.4,1.9,6.6,3c1.4,0.7,2.8,1.4,4.1,2.2c0.6,0.4,1.2,0.8,1.8,1.2c0.2,0.2,0.6,0.4,0.8,0.6
				c0.2,0.4,0.1,0.9-0.1,1.2c-0.1,0.4-0.3,0.7-0.6,0.9c-1,1.1-2.4,1.9-3.7,2.5c-0.9,0.4-1.7,0.8-2.6,1.1c-0.8,0.3-1.7,0.8-2.5,0.9
				c-0.4,0.1-0.9,0-1.3-0.1c-0.4-0.1-0.9-0.2-1.4-0.2c-0.9-0.2-1.8-0.3-2.7-0.5c-4.1-0.8-8.1-1.9-12.1-3.1
				c-3.9-1.2-7.8-2.4-11.8-3.6c-18.7-5.4-38.1-11.4-54.4-22.3c-3.8-2.6-7.5-6.2-9.1-10.6c-4.2-11.3,7.8-20,18-15.8
				c17.1,7.1,31.2,19.9,47.3,28.9C162.1,195.5,164.9,197.1,167.6,198.6z"/>
			<path id="Path_00000009551388689249625330000010562442653960242349_" class="st12" d="M205.8,217.1c3.8-1.2,7.5-2.4,11.2-3.4
				c18.7-5.4,38.1-11.4,54.3-22.3c3.8-2.6,7.5-6.2,9.1-10.6c4.2-11.3-7.8-20-18-15.8c-17.1,7.1-31.2,19.8-47.3,28.9
				c-2.7,1.5-5.4,3.1-8.1,4.7c-2.3,1.4-4.7,2.8-7.1,4.1"/>
			<path id="Path_00000018928351185985939530000009360174645537516192_" class="st8" d="M200,202.7c-2.7,1.6-5.4,3.1-8.1,4.4
				c-2.8,1.4-19.2,7.2-14.8,13.1c0.9,1.1,2.5,1.3,4,1.3c8.4,0.1,16.6-2.1,24.6-4.5"/>
			<path id="Path_00000178916658437175670420000011176241024083259817_" class="st8" d="M182.8,207.2c-1.5-0.8-3.1-1.6-4.6-2.4
				c-2.6,0.6-5.2,1.2-7.9,1.4c-5.8,0.5-11.5-0.8-17.2-0.4c-1.4,0.1-2.9,0.3-4.3,0.6c-1.7,0.3-3.6,1.1-4,2.8
				c-0.1,0.2-0.1,0.5-0.1,0.8c4.3,1.4,8.7,2.7,13,3.9c5.8,1.7,11.8,3.7,17.7,5.2h0.1c3.2-1.2,6.9-2.2,10.3-3.7
				c2.2-1,4.4-2.2,6.1-3.8C188.1,209.4,184,207.8,182.8,207.2z"/>
			<path id="Path_00000177456537868405129810000004651185457340099508_" class="st12" d="M168.9,217.1c-3.8-1.2-7.5-2.4-11.2-3.4
				c-18.6-5.4-38.1-11.4-54.3-22.3c-3.8-2.6-7.5-6.2-9.1-10.6c-4.2-11.3,7.8-20,18.1-15.8c17.1,7.1,31.1,19.8,47.3,28.9
				c2.7,1.5,5.4,3.1,8.1,4.7c2.4,1.4,4.7,2.8,7.1,4.1"/>
			<path id="Path_00000131356981958838843860000004061072707057728189_" class="st3" d="M187.3,221.3c-3.6,0.8-7.4,1.1-10.8,1.8
				c-1.5,0.2-3.1,0.6-4.6,0.7c-2.4,0.2-4.9,0.2-7.3,0.2c-1.8,0-3.6,0-5.4,0c-0.9,0-2,0-2.9-0.4c-1-0.6-1.6-1.6-2.2-2.6
				c-1.1-2-2.5-3.9-3.4-6c-0.6-1.4-1.2-2.8-0.4-4.2c0.4-0.7,1-1.3,1.6-1.8c0.8-0.7,1.6-1.3,2.6-1.8c3.1-1.5,6.1-0.6,9.3,0.2
				c3.3,0.8,6.6,1.8,10,2.1c3.6,0.4,7.3,0.2,11-0.1c2.9-0.1,7.4-0.9,10,0.8c1,0.7,2.7,2.4,2.8,3.7c0.2,1.6-1.7,3.3-2.8,4.2
				C192.6,219.7,190.1,220.6,187.3,221.3z"/>
			<path id="Path_00000152232774836466377670000003101645764261652141_" class="st1" d="M174.4,223.4c-3.1-0.3-7.2-0.9-9.3-3.3
				c-1.7-1.8-2.3-4.2-2.3-6.6c0-2.4,1.8-4.2,4-5.4c-5.6-2.9-10.8-2.9-15.8-1c-0.6,0.2-1.1,0.5-1.6,0.8c-6.8,4.4-2.3,12.8,3.2,15.8
				c2.6,1.4,5.4,2,8.3,1.9c2.3-0.1,3.9-0.3,6.2-0.6C169.9,224.7,171.3,224,174.4,223.4z"/>
		</g>
	</g>
</g>
</svg>
