<svg xmlns="http://www.w3.org/2000/svg" width="1439.99" height="320.55" viewBox="0 0 1439.99 320.55">
  <defs>
    <style>
      .cls-1 {
        fill: #fff;
        fill-rule: evenodd;
      }
    </style>
  </defs>
  <g id="_67" data-name="67">
    <path class="cls-1" d="M1370.14,4.17c-8.92,1.84-44.28,9.77-86.92,40.66-45.22,32.76-46.93,53.89-90,94.1-32.83,30.68-62.59,47.12-89.58,62-111.65,61.66-229.29,61.41-275,60.81-137.7-1.8-248.87-48.15-267.34-56-51.51-22-73.48-39.26-128.64-49.89-26.34-5.08-94.92-17.47-173.65,8.4-17.95,5.89-65.81,22.11-112.17,61.63-29.26,24.94-42,46.34-79.64,67.64A276.08,276.08,0,0,1,0,320.55H1440V2A205.51,205.51,0,0,0,1370.14,4.17Z"/>
  </g>
</svg>
