<?xml version="1.0" encoding="utf-8"?>
<!-- Generator: Adobe Illustrator 25.2.0, SVG Export Plug-In . SVG Version: 6.00 Build 0)  -->
<svg version="1.1" id="_x36_7" xmlns="http://www.w3.org/2000/svg" xmlns:xlink="http://www.w3.org/1999/xlink" x="0px" y="0px"
	 viewBox="0 0 2880 451.3" style="enable-background:new 0 0 2880 451.3;" xml:space="preserve">
<style type="text/css">
	.st0{fill:#FFFFFF;}
	.st1{fill:#30308C;}
	.st2{fill:#0F0C44;}
	.st3{fill:#DD997A;}
	.st4{fill:#0B1F31;}
	.st5{fill:#E2544D;}
	.st6{clip-path:url(#SVGID_2_);fill:#ED5F54;}
	.st7{opacity:0.3;}
	.st8{fill:#CC8062;}
	.st9{fill:#BBCFCD;}
	.st10{fill:#C17557;}
	.st11{fill:#332E8F;}
	.st12{fill:#EBEBF4;}
	.st13{fill:#1E1C4A;}
</style>
<path class="st0" d="M2846.7,78.3c-10,12.1-35.2,39-76.3,52.8c-58.1,19.5-110.6,0.3-129.9-6.8c-2.1-0.8-1.9-0.7-15.7-7.3
	c-8.9-4.2-41.6-20.2-56.1-26.4c-24.1-10.1-44.1-14.3-57.9-17c-18.7-3.8-50.8-9.9-91.7-5.5c-11.9,1.3-42,5.3-76.7,20
	c-66.2,28.1-62.7,58.3-125.3,94.6c-61.7,35.9-122.7,39.9-145.9,41.2c-39.8,2.2-72.3-3.5-80.2-4.9c-16.7-3-33.2-7.5-51.1-13.7
	c-82.5-28.8-85.1-65.6-158.5-83.9c-24.5-6.1-72.5-17.3-125.3,3.7c-52.7,21-92.2,67.1-102.8,103c-6.9,23.5-11.4,42.3-11.4,42.3
	c-7.6,32-6,38.1-11.4,44.4c-16.8,19.8-52.9,18.7-90.5,10.5l0,0l0,0c0,0,0,0,0,0l0,0l0,0l0,0l0,0c-37.6,8.3-73.7,9.3-90.5-10.5
	c-5.4-6.3-3.8-12.4-11.4-44.4c0,0-4.5-18.8-11.4-42.3c-10.6-35.9-50-81.9-102.8-103c-52.8-21-100.8-9.8-125.3-3.7
	c-73.5,18.2-76,55.1-158.5,83.9c-17.9,6.2-34.4,10.7-51.1,13.7c-7.9,1.4-40.4,7.2-80.2,4.9c-23.2-1.3-84.2-5.4-145.9-41.2
	c-62.5-36.3-59-66.6-125.3-94.6c-34.7-14.7-64.9-18.8-76.7-20c-40.9-4.4-73,1.8-91.7,5.5c-13.8,2.8-33.8,6.9-57.9,17
	c-14.5,6.1-47.2,22.2-56.1,26.4c-13.8,6.6-13.7,6.5-15.7,7.3c-19.3,7.1-71.9,26.3-129.9,6.8c-41.1-13.8-66.3-40.7-76.3-52.8
	C13.2,54.1,4.2,29.7,0,15.2c0,145.4,0,290.7,0,436.1h1434.6h5.4l0,0h5.5H2880c0-145.4,0-290.7,0-436.1
	C2875.8,29.7,2866.8,54.1,2846.7,78.3z"/>
<g id="lady">
	<g>
		<path class="st1" d="M1528.8,214.7c-13.8,5.6-31.3,3.9-43.5-4.8c-12.3-8.7-23.5-15.2-39.1-15.6c-9.7-0.3-18.8,3.8-28,6.1
			c-8.1,2-14.3,8.6-23.1,9.8c-11.5,1.6-23.3-5.5-28.5-15.9c-5.2-10.4-4-23.3,1.7-33.4c4.2-7.3,8.1-12.8,3.4-21c-1-1.8-2.3-3.4-3-5.4
			c-0.7-1.8-0.8-3.8-0.7-5.8c0.4-10.6,8.5-18.6,13.8-27.3c1.3-2,2.5-4.2,2.9-6.5c1-6-3.8-11.2-6.4-16.8c-8.3-18,5.9-38.4,19.6-49.2
			c8.1-6.4,17.8-8.9,26.6-14.1c4-2.4,7.6-5.3,11.7-7.6c7-4,14.7-4.1,22.5-3c22.2,3.1,47.5,19.3,52.7,42.6
			c3.5,15.8-2.2,34.1,13.4,45.1c4.7,3.3,10.7,5.3,13.9,10.1c6.8,10.2-3.2,25.2,3,35.8c1.4,2.4,3.5,4.2,5.4,6.2
			c10,10.4,15.1,25.3,13.7,39.6c-0.3,3.5-1.1,7-2.8,10.1c-2.4,4.2-6.4,7.2-10.3,10c-5.9,4.2-11.9,8.3-18.6,11.1
			C1528.9,214.6,1528.8,214.7,1528.8,214.7z"/>
		<path class="st1" d="M1366.5,170.9c-1.2-3.7,0.9-6.9,3-10.1c0.9-1.3,1.7-2.7,2.4-4c1.6-3.4,1.5-7.6-0.1-10.9
			c-0.9-1.9-2.2-3.4-3.6-5.1c-1.3-1.5-2.6-3.1-3.6-4.9c-2.2-4.1-2.4-9.2-0.5-13.4c1.9-4.1,5.4-7.1,8.8-9.9c0.7-0.6,1.5-1.2,2.2-1.8
			c3-2.6,9.6-9.5,7.1-17.9c-1-3.2-2.6-6.1-4.2-9c-0.6-1.1-1.2-2.2-1.8-3.3c-3.4-6.6-5.2-13-5.4-19c-0.2-7.1,2-13.9,6.2-18.6
			c3.6-4.1,8.5-6.7,13.6-9.2c1.4-0.7,2.8-1.4,4.2-2.1c6.1-3,12.4-6.1,18.3-9.7c3.9-2.5,7.4-4.7,10.2-7.6c0.7-0.8,1.4-1.5,2.1-2.3
			c2.1-2.3,4-4.4,6.8-6.1c19-11.6,49-4.8,64.1,8.7c0.9,0.8,1.9,1.7,2.7,2.6c7,7.3,11.4,16,12.2,23.9c0.8,8.1,1,16,1,22.7
			c0,1.4,0,2.8-0.1,4.1c-0.1,4.2-0.3,7.9,1.3,12.1c2.4,6.6,5.5,10.5,9.6,12.5c1.9,0.9,3.9,1.3,6.1,1.8c1.6,0.3,3.2,0.7,4.8,1.2
			c7.3,2.6,12.7,9.8,13,17.6c0.2,4.2-1,8.3-2.2,12.2c-0.5,1.8-1.1,3.6-1.5,5.4c-1.8,7.8-1.1,18.3,6.2,24.5l-0.9,1
			c-7.7-6.6-8.4-17.7-6.6-25.8c0.4-1.8,1-3.7,1.5-5.5c1.1-3.8,2.3-7.8,2.2-11.8c-0.3-7.2-5.2-14-12.1-16.4c-1.5-0.5-3.1-0.9-4.6-1.2
			c-2.1-0.5-4.4-0.9-6.4-1.9c-5.9-2.8-8.7-8.9-10.3-13.3c-1.6-4.4-1.5-8.4-1.4-12.6c0-1.3,0.1-2.6,0.1-4c0-6.7-0.2-14.6-1-22.6
			c-0.8-7.6-5.1-16-11.9-23.1c-0.8-0.9-1.7-1.7-2.6-2.5c-14.7-13.1-44-19.9-62.5-8.5c-2.6,1.6-4.5,3.7-6.5,5.9
			c-0.7,0.8-1.4,1.5-2.2,2.3c-2.9,2.9-6.4,5.3-10.4,7.8c-5.9,3.7-12.2,6.8-18.4,9.8c-1.4,0.7-2.8,1.4-4.2,2.1c-5,2.5-9.7,5-13.1,8.9
			c-3.9,4.5-6,10.9-5.8,17.7c0.2,5.8,1.9,12,5.3,18.4c0.6,1.1,1.2,2.2,1.8,3.3c1.6,2.9,3.3,6,4.3,9.3c1.9,6.4-0.8,13.4-7.5,19.3
			c-0.7,0.6-1.5,1.2-2.2,1.9c-3.3,2.8-6.7,5.6-8.5,9.5c-1.7,3.8-1.6,8.5,0.4,12.2c0.9,1.7,2.2,3.2,3.4,4.7c1.4,1.7,2.8,3.4,3.8,5.4
			c1.9,3.8,1.9,8.3,0.1,12.1c-0.7,1.4-1.6,2.8-2.5,4.2c-2,3-3.9,5.9-2.9,9L1366.5,170.9z"/>
	</g>
	<path class="st2" d="M1620.5,368.7c-4.1,5.2-9.5,9.7-14.8,13.4c-29,20.2-63.7,34.1-98.1,43c-30.7,8-62.9,7.6-94.3,4.5
		c-21.5-2.1-42.8-8.8-63.5-14.9c-21.3-6.4-42.3-13.9-62.2-24c-15.6-7.9-29.7-17.8-32-36.5c-0.9-7.4,0.7-15.5,6.3-20.5
		c6.8-6,17.1-5.8,26.2-5.1c51.9,4,102.1,21.5,154.4,21.8c29.2,0.2,56.3-7.4,84.4-14.3c21.6-5.3,45.6-11.1,68.1-10
		C1615.3,327.1,1635.5,349.7,1620.5,368.7z"/>
	<path class="st3" d="M1374.7,324.9c-0.6-1.3-1.1-2.6-1.8-4c-6.3-14.2-11-29.1-13.8-44.3c-1-5.5-2-11.5-6.2-15.2
		c-5.8-5.1-17.1-4.4-24.3-3.5c-3.4,0.5-6.9,1.6-8.9,4.3c-3.4,4.5-3,14.7-3.2,20.1c-0.8,33,25.3,60.3,46.5,82.5
		c4.1,4.3,8.5,8.6,14.2,10.4c5.7,1.7,12.9-0.1,15.3-5.4c1.8-3.9,0.7-8.6-0.7-12.7c-2.5-7.1-6.2-13.5-10.4-19.7
		C1378.5,333.3,1376.6,329.2,1374.7,324.9z"/>
	<path class="st4" d="M1499.5,145.6c0.9,5.8,0.2,11.7-2.3,16.9c-6.8,14.2-23.7,16.9-37.9,17.5c-5.3,0.2-10.5-0.1-15.8-0.8
		c-4.6-0.7-8.8,0-13.5-0.1c-9.3-0.2-18.5-2.9-26.3-7.9c-3.8-2.4-7.4-5.5-9.4-9.5c-2.7-5.6-1.9-12.2-0.5-18.2c0.8-3.5,1.9-7,3.6-10.1
		c1.9-3.3,4.7-6.1,6.3-9.6c3-6.5,0.5-14.2,3.2-20.6c2.1-5,7.3-10.7,11.7-13.9c5.9-4.3,13.6-5.6,20.9-5.1c7.3,0.5,14.4,2.7,21.3,5
		c5.5,1.8,10.2,0.7,14.2,5.2c3.2,3.6,2.1,9.4,3.1,13.8C1481.6,122.6,1497.2,130.3,1499.5,145.6z"/>
	<path class="st5" d="M1398.8,210.4c-9.3,15.9-19.7,31.2-29.7,46.7c-5.6,8.6-11.2,17.4-14.2,27.3c-13.8-0.3-27.6-3.3-41.1-5.8
		c2.2-18.3,11.8-34.8,20.4-50.8c9-16.6,18.7-32.8,27.1-49.7c6.9-13.7,19.7-30.1,36.9-21.9c13.2,6.3,11.2,24.5,8.4,36.3
		C1405.2,198.8,1402.2,204.7,1398.8,210.4z"/>
	<path class="st3" d="M1502.9,324.9c0.6-1.3,1.1-2.6,1.8-4c6.3-14.2,11-29.1,13.8-44.3c1-5.5,2-11.5,6.2-15.2
		c5.8-5.1,17.1-4.4,24.3-3.5c3.4,0.5,6.9,1.6,8.9,4.3c3.4,4.5,3,14.7,3.2,20.1c0.8,33-25.3,60.3-46.5,82.5
		c-4.1,4.3-8.5,8.6-14.2,10.4c-5.7,1.7-12.9-0.1-15.3-5.4c-1.8-3.9-0.7-8.6,0.7-12.7c2.5-7.1,6.2-13.5,10.4-19.7
		C1499,333.3,1500.9,329.2,1502.9,324.9z"/>
	<path class="st5" d="M1478.7,210.4c9.3,15.9,19.7,31.2,29.7,46.7c5.6,8.6,11.2,17.4,14.2,27.3c13.8-0.3,27.6-3.3,41.1-5.8
		c-2.2-18.3-11.8-34.8-20.4-50.8c-9-16.6-18.7-32.8-27.1-49.7c-6.9-13.7-19.7-30.1-36.9-21.9c-13.2,6.3-11.2,24.5-8.4,36.3
		C1472.3,198.8,1475.4,204.7,1478.7,210.4z"/>
	<g>
		<defs>
			<path id="SVGID_1_" d="M1507.6,340.1c-3.8-10.2-9.6-18.5-12.9-29c-4.5-14.3-7.6-34.6-2.4-49.4c5.5-15.7,12.2-28.1,12.6-45.5
				c0.3-15-2.7-29.7-5.7-44.3c-3-14.4-4.3-18.6-18.5-20.8c-5-0.8-10-2.1-15-3c-8.5-1.5-17.2-2.2-25.8-2.2v0c-0.1,0-0.2,0-0.3,0
				c-0.1,0-0.2,0-0.3,0v0c-8.7,0-17.3,0.7-25.8,2.2c-5,0.9-10,2.3-15,3c-14.1,2.2-15.5,6.4-18.5,20.8c-3,14.6-6,29.3-5.7,44.3
				c0.4,17.5,7.1,29.9,12.6,45.5c5.2,14.8,2.1,35.1-2.4,49.4c-3.3,10.5-9.1,18.8-12.9,29c-0.3,0.8-0.6,1.7-0.4,2.5
				c0.3,1.1,1.3,1.7,2.3,2.2c18.8,9.8,39.8,12.8,60.4,14.3c1.8,0.1,3.6,0.3,5.3,0.4v0c0.1,0,0.2,0,0.4,0c0.1,0,0.2,0,0.4,0v0
				c1.7-0.1,3.5-0.2,5.3-0.4c20.6-1.5,41.6-4.5,60.4-14.3c1-0.5,2-1.1,2.3-2.2C1508.2,341.8,1507.9,340.9,1507.6,340.1z"/>
		</defs>
		<use xlink:href="#SVGID_1_"  style="overflow:visible;fill:#ED5F54;"/>
		<clipPath id="SVGID_2_">
			<use xlink:href="#SVGID_1_"  style="overflow:visible;"/>
		</clipPath>
		<path class="st6" d="M1484.3,154c0.9-2.7,4.2-8.7,2.5-11c-1.7-2.4-7.9-1.9-10.3-1.8c-26.6,0.9-53.1,1.8-79.7,2.7
			c1.5,5.7,1.6,11,3.8,16.6c1.9,4.8,4.3,9.3,7.5,13.4c6.3,8.1,15.2,13.8,25.3,15.8c17.1,3.4,36-5,44.7-20.1
			C1480.8,164.8,1482.6,159.4,1484.3,154z"/>
	</g>
	<path class="st3" d="M1419.6,173.9c8.3,9.5,24.3,10.2,35.5,6.3c7.6-2.6,13-8.6,13.2-16.9c0.2-9.2-7.9-15.8-10-24.4
		c-1.2-4.9-1-9.9-0.9-14.9c0.1-5.8,0.2-11.6,0.5-17.4c-5.7-1.2-10.4-1.8-16.5-1.6c-5,0.2-10.1-0.3-15.1,0c-0.4,0-0.8,0.1-1.1,0.3
		c-0.3,0.3-0.3,0.7-0.4,1.1c-0.7,7.8,0,15.8-0.5,23.6c-0.5,7.2-2.1,14.5-6.3,20.4C1412.8,157.8,1414.1,167.6,1419.6,173.9z"/>
	<g class="st7">
		<g>
			<path class="st0" d="M1435,22.7c4.2-2.2,8.9-3.2,13.6-3.4c4.7-0.2,9.5,0.4,14.1,1.5c9.3,2.1,17.9,6.8,24.7,13.5
				c6.8,6.7,11.5,15.6,12.8,25.1c0.7,4.8,0.4,9.5,0.5,14.2c0.1,4.7,0.5,9.4,2.4,13.5c2,4.1,5.4,7.5,9.1,10.2c3.8,2.7,8,4.9,12,7.4
				c2,1.2,4.1,2.5,5.6,4.6c1.5,2.1,1.8,4.7,1.8,7.1c0,2.4-0.3,4.8-0.9,7.1c-0.6,2.3-1.7,4.5-2.6,6.6c-0.9,2.1-1.5,4.4-1.3,6.6
				c0.2,2.3,1,4.5,1.9,6.6c2,4.2,4.5,8.3,6.5,12.6c2,4.3,3.6,8.8,3.9,13.6c0.4,4.7-0.2,9.5-1.7,14c1.5-4.5,1.9-9.3,1.4-13.9
				c-0.5-4.7-2.1-9.1-4.2-13.3c-2.1-4.2-4.6-8.2-6.7-12.5c-1-2.1-1.9-4.4-2.1-6.9c-0.3-2.4,0.3-4.9,1.2-7.1c0.9-2.2,1.9-4.3,2.5-6.5
				c0.6-2.2,0.9-4.5,0.8-6.8c0-2.3-0.4-4.6-1.6-6.4c-1.3-1.8-3.3-3.1-5.3-4.3c-4-2.4-8.2-4.6-12.1-7.4c-3.9-2.8-7.4-6.2-9.6-10.7
				c-2.1-4.5-2.4-9.4-2.5-14.1c-0.1-4.7,0.2-9.4-0.4-14c-1.2-9.2-5.8-17.9-12.3-24.5c-6.5-6.7-15-11.4-24.1-13.6
				c-4.5-1.1-9.2-1.9-13.9-1.8C1443.9,19.7,1439.2,20.7,1435,22.7z"/>
		</g>
	</g>
	<path class="st8" d="M1458,137.8c-0.9-4.5-0.8-9.2-0.7-13.8c0.1-5.8,0.2-11.6,0.5-17.4c-5.7-1.2-10.4-1.8-16.5-1.6
		c-5,0.2-10.1-0.3-15.1,0c-0.4,0-0.8,0.1-1.1,0.3c-0.3,0.3-0.3,0.7-0.4,1.1c-0.7,7.8,0,15.8-0.5,23.6c-0.2,2.2-0.4,4.5-0.8,6.7
		c0.8,0.7,1.6,1.4,2.4,2c6.2,4.6,14.6,6.1,22.1,4C1451.6,141.6,1455,139.9,1458,137.8z"/>
	<path class="st3" d="M1479.3,75.6c-0.2-7.7-1.3-14.9-3.4-21c-8.9-26-41.5-31.9-60.9-12.9c-21.6,21.2-12.5,71,10.8,88.2
		c6.2,4.6,14.6,6.1,22.1,4C1470.4,127.5,1479.8,99.6,1479.3,75.6z"/>
	<path class="st8" d="M1479.2,53c-7-26.5-39.1-34.9-59.8-17.3c-3.3,2.8-5.6,6.1-7.9,9.7c-2,3-4.8,5.3-6.5,8.7
		c-1.8,3.4-2.9,7.2-3.3,11.1c-0.4,3.8,0.9,7,1,10.6c-0.1-3.8,1.5-7.5,4.4-10c2.2-1.9,5-3.1,7.5-4.5c2.5-1.4,5-3.4,6-6.1
		c8.2,10.8,21,14.1,33.5,17.2c10.5,2.6,22.1,9.2,22.3,21.5c0,1.6,0.1,2,0.8,4c0.7-1.8,1-3.2,1.2-5.2c0.2-2,0.8-4,1.2-6
		c0.8-4.1,1.3-8.3,1.5-12.5C1481.5,66.5,1480.9,59.2,1479.2,53z"/>
	<path class="st1" d="M1485.2,98.6c2.1-1.6,3.7-3.9,4.6-6.4c2.8-8.2,2.5-17.4,2.2-26.2c-0.2-4.9-0.4-9.9-1.7-14.6
		c-1.5-5.1-4.3-9.7-7.6-13.6c-9.5-11.3-23.7-17-37.4-15.8c-5.5,0.5-9.5,3.1-14.3,5.3c-4.7,2.2-10.2,3.4-15.2,5
		c-5.7,1.9-11.6,3.9-16.1,7.8c-3.3,2.9-5.7,6.7-7.4,10.7c-2.1,4.8-2.3,10.2-1.7,15.4c0.5,4.3,1,8.8,2.9,12.8c1.8,3.7,5.7,6.2,9.2,8
		c-0.5-0.3-0.1-6.4-0.1-7.4c-0.1-5.4,0.2-11,1.9-16.2c1.6-5.1,4.9-8.2,9.1-11.3c1.7-1.2,3.4-2.5,4.8-4.1c0.7-0.8,3.8-4.4,3.3-5.5
		c2.4,5.3,6.2,10.7,10.9,14.2c8.9,6.6,18.9,11.2,29,15.2c0.7,0.3,1.5,0.6,2.2,0.9c2.8,1.1,5.5,2.4,7.8,4.5
		c5.1,4.6,5.5,11.7,5.3,18.2c0,0.7,0,1.4,0.2,2.1C1478.1,100.8,1483.2,100.2,1485.2,98.6z"/>
	<polygon class="st9" points="1344.7,253.1 1343.1,256.9 1536.1,256.9 1534.2,252.6 	"/>
	<path class="st3" d="M1438.9,442.6c7.2,1.7,14.9,2.3,21.6,3.5c3,0.5,6.1,1.1,9.1,1.4c4.9,0.5,9.8,0.5,14.7,0.5c3.6,0,7.1,0,10.7,0
		c1.9,0,4,0,5.7-0.9c2.1-1.1,3.3-3.2,4.4-5.2c2.3-4,5-7.8,6.8-12c1.1-2.5,1.6-4.6,3.2-6.8c1.6-2.1,3.1-5,2-7.6c-1.3-3.2-5.4-4-8.9-4
		c-2.9,0-5.8,0.1-8.7,0.5c-11.4,1.4-22.3,5.9-33.7,7.2c-7.3,0.8-14.7,0.3-22-0.1c-5.8-0.3-14.8-1.8-20,1.6c-2.1,1.4-5.4,4.7-5.7,7.3
		c-0.3,3.3,3.4,6.7,5.7,8.5C1428.2,439.4,1433.4,441.3,1438.9,442.6z"/>
	<path class="st10" d="M1511.8,430.3c0.1-0.2,0.1-0.3,0.2-0.5c1.1-2.5,1.6-4.6,3.2-6.8c1.6-2.1,3.1-5,2-7.6c-1.3-3.2-5.4-4-8.9-4
		c-2.9,0-5.8,0.1-8.7,0.5c-11.4,1.4-22.3,5.9-33.7,7.2c-6,0.7-12,0.4-18.1,0.1c-4.4,2-20.1,7.1-27.5,13.8c1.1,1.3,2.5,2.5,3.6,3.3
		c4.3,3.2,9.5,5.1,15,6.3c4.6,1.1,9.3,1.7,13.9,2.3c15.3-2.7,30.3-7.4,45.2-11.1C1502.5,432.7,1507.2,431.5,1511.8,430.3z"/>
	<path class="st11" d="M1522.8,378.9h-166.5L1344.4,255c-0.2-2.2,1.5-4.1,3.7-4.1H1531c2.2,0,3.9,1.9,3.7,4.1L1522.8,378.9z"/>
	<path class="st1" d="M1463.9,446.8c6.3-0.6,14.4-1.9,18.7-6.6c3.3-3.6,4.6-8.3,4.6-13.2c0-4.8-3.7-8.5-8-10.7
		c11.1-5.8,21.5-5.8,31.6-2c1.1,0.4,2.2,1,3.2,1.6c13.5,8.7,4.6,25.6-6.5,31.6c-5.1,2.7-10.8,4-16.6,3.8c-4.6-0.2-7.7-0.7-12.3-1.2
		C1472.9,449.4,1470.1,448,1463.9,446.8z"/>
	<path class="st12" d="M1524.1,382.4H1355l-12.1-123.9c-0.2-2.2,1.5-4.1,3.8-4.1h185.8c2.2,0,4,1.9,3.8,4.1L1524.1,382.4z"/>
	<rect x="1355" y="382.4" class="st11" width="169" height="7.5"/>
	
		<ellipse transform="matrix(0.1547 -0.988 0.988 0.1547 902.307 1691.3529)" class="st11" cx="1439.6" cy="318.4" rx="11.7" ry="11.7"/>
	<path class="st3" d="M1400.2,397.3c10,5.8,20.1,11.7,30.3,17.1c0.2,0.1,0.4,0.2,0.6,0.3c4.4,2.1,8.9,3.8,13.2,6
		c2.8,1.4,5.5,2.8,8.1,4.5c1.2,0.8,2.4,1.6,3.5,2.5c0.5,0.4,1.2,0.8,1.5,1.3c0.4,0.7,0.2,1.7-0.1,2.4c-0.3,0.7-0.7,1.3-1.2,1.9
		c-2,2.2-4.7,3.7-7.4,5c-1.7,0.8-3.4,1.6-5.1,2.2c-1.6,0.6-3.4,1.5-5,1.8c-0.8,0.2-1.8-0.1-2.6-0.2c-0.9-0.1-1.8-0.3-2.7-0.4
		c-1.8-0.3-3.6-0.6-5.4-1c-8.1-1.6-16.2-3.8-24.1-6.2c-7.9-2.4-15.7-4.9-23.6-7.2c-37.3-10.8-76.2-22.8-108.7-44.7
		c-7.5-5.1-15-12.5-18.2-21.1c-8.4-22.6,15.6-40,36.1-31.5c34.2,14.2,62.3,39.7,94.6,57.8C1389.3,391,1394.7,394.2,1400.2,397.3z"/>
	<path class="st13" d="M1476.5,434.2c7.5-2.3,15-4.7,22.4-6.8c37.3-10.8,76.2-22.8,108.7-44.7c7.5-5.1,15-12.5,18.2-21.1
		c8.4-22.6-15.6-40-36.1-31.5c-34.2,14.2-62.3,39.7-94.6,57.8c-5.4,3-10.8,6.2-16.2,9.4c-4.7,2.7-9.4,5.5-14.1,8.1"/>
	<path class="st8" d="M1465,405.5c-5.4,3.1-10.8,6.1-16.3,8.9c-5.6,2.9-38.5,14.3-29.5,26.2c1.8,2.3,5.1,2.6,8,2.6
		c16.8,0.2,33.2-4.1,49.3-9"/>
	<path class="st8" d="M1430.5,414.4c-3-1.6-6.1-3.2-9.1-4.9c-5.3,1.3-10.5,2.4-15.9,2.8c-11.5,0.9-23-1.5-34.5-0.8
		c-2.9,0.2-5.8,0.6-8.6,1.2c-3.4,0.7-7.2,2.2-8,5.6c-0.1,0.5-0.1,1-0.1,1.5c8.6,2.7,17.3,5.3,25.9,7.7c11.7,3.4,23.5,7.4,35.4,10.5
		c0,0,0.1,0,0.1,0c6.4-2.4,13.8-4.5,20.6-7.4c4.5-2,8.7-4.4,12.2-7.6C1441.2,418.8,1433,415.7,1430.5,414.4z"/>
	<path class="st13" d="M1402.7,434.2c-7.5-2.3-15-4.7-22.4-6.8c-37.3-10.8-76.2-22.8-108.7-44.7c-7.5-5.1-15-12.5-18.2-21.1
		c-8.4-22.6,15.6-40,36.1-31.5c34.2,14.2,62.3,39.7,94.6,57.8c5.4,3,10.8,6.2,16.2,9.4c4.7,2.7,9.4,5.5,14.1,8.1"/>
	<path class="st3" d="M1439.6,442.6c-7.2,1.7-14.9,2.3-21.6,3.5c-3,0.5-6.1,1.1-9.1,1.4c-4.9,0.5-9.8,0.5-14.7,0.5
		c-3.6,0-7.1,0-10.7,0c-1.9,0-4,0-5.7-0.9c-2.1-1.1-3.3-3.2-4.4-5.2c-2.3-4-5-7.8-6.8-12c-1.2-2.8-2.5-5.5-0.8-8.4
		c0.8-1.4,2-2.6,3.2-3.6c1.6-1.4,3.2-2.6,5.1-3.6c6.1-3.1,12.3-1.3,18.6,0.3c6.6,1.7,13.2,3.6,20,4.3c7.3,0.8,14.7,0.3,22-0.1
		c5.8-0.3,14.8-1.8,20,1.6c2.1,1.4,5.4,4.7,5.7,7.3c0.3,3.3-3.4,6.7-5.7,8.5C1450.3,439.4,1445.1,441.3,1439.6,442.6z"/>
	<path class="st1" d="M1413.9,446.8c-6.3-0.6-14.4-1.9-18.7-6.6c-3.3-3.6-4.6-8.3-4.6-13.2c0-4.8,3.7-8.5,8-10.7
		c-11.1-5.8-21.5-5.8-31.6-2c-1.1,0.4-2.2,1-3.2,1.6c-13.5,8.7-4.6,25.6,6.5,31.6c5.1,2.7,10.8,4,16.6,3.8c4.6-0.2,7.7-0.7,12.3-1.2
		C1404.8,449.4,1407.6,448,1413.9,446.8z"/>
</g>
</svg>
