<svg id="_67" data-name="67" xmlns="http://www.w3.org/2000/svg" xmlns:xlink="http://www.w3.org/1999/xlink" width="2880" height="451.24" viewBox="0 0 2880 451.24">
  <defs>
    <style>
      .cls-1 {
        fill: none;
      }

      .cls-2 {
        fill: #fff;
      }

      .cls-3 {
        fill: #30308c;
      }

      .cls-4 {
        fill: #0f0c44;
      }

      .cls-5 {
        fill: #dd997a;
      }

      .cls-6 {
        fill: #0b1f31;
      }

      .cls-7 {
        fill: #e2544d;
      }

      .cls-8 {
        fill: #ed5f54;
      }

      .cls-9 {
        clip-path: url(#clip-path);
      }

      .cls-10 {
        opacity: 0.3;
      }

      .cls-11 {
        fill: #cc8062;
      }

      .cls-12 {
        fill: #bbcfcd;
      }

      .cls-13 {
        fill: #c17557;
      }

      .cls-14 {
        fill: #332e8f;
      }

      .cls-15 {
        fill: #ebebf4;
      }

      .cls-16 {
        fill: #1e1c4a;
      }
    </style>
    <clipPath id="clip-path" transform="translate(0 -0.08)">
      <path class="cls-1" d="M1507.6,340.1c-3.8-10.2-9.6-18.5-12.9-29-4.5-14.3-7.6-34.6-2.4-49.4,5.5-15.7,12.2-28.1,12.6-45.5.3-15-2.7-29.7-5.7-44.3-3-14.4-4.3-18.6-18.5-20.8-5-.8-10-2.1-15-3a149,149,0,0,0-25.8-2.2h-.6a148.14,148.14,0,0,0-25.8,2.2c-5,.9-10,2.3-15,3-14.1,2.2-15.5,6.4-18.5,20.8-3,14.6-6,29.3-5.7,44.3.4,17.5,7.1,29.9,12.6,45.5,5.2,14.8,2.1,35.1-2.4,49.4-3.3,10.5-9.1,18.8-12.9,29a4.42,4.42,0,0,0-.4,2.5,3.85,3.85,0,0,0,2.3,2.2c18.8,9.8,39.8,12.8,60.4,14.3,1.8.1,3.6.3,5.3.4h.8c1.7-.1,3.5-.2,5.3-.4,20.6-1.5,41.6-4.5,60.4-14.3a3.85,3.85,0,0,0,2.3-2.2A4.42,4.42,0,0,0,1507.6,340.1Z"/>
    </clipPath>
  </defs>
  <path class="cls-2" d="M2846.7,78.3c-10,12.1-35.2,39-76.3,52.8-58.1,19.5-110.6.3-129.9-6.8-2.1-.8-1.9-.7-15.7-7.3-8.9-4.2-41.6-20.2-56.1-26.4-24.1-10.1-44.1-14.3-57.9-17-18.7-3.8-50.8-9.9-91.7-5.5a275,275,0,0,0-76.7,20c-66.2,28.1-62.7,58.3-125.3,94.6-61.7,35.9-122.7,39.9-145.9,41.2A355.93,355.93,0,0,1,1991,219a335.84,335.84,0,0,1-51.1-13.7c-82.5-28.8-85.1-65.6-158.5-83.9-24.5-6.1-72.5-17.3-125.3,3.7s-92.2,67.1-102.8,103c-6.9,23.5-11.4,42.3-11.4,42.3-7.6,32-6,38.1-11.4,44.4-16.8,19.8-52.9,18.7-90.5,10.5h0c-37.6,8.3-73.7,9.3-90.5-10.5-5.4-6.3-3.8-12.4-11.4-44.4,0,0-4.5-18.8-11.4-42.3-10.6-35.9-50-81.9-102.8-103s-100.8-9.8-125.3-3.7c-73.5,18.2-76,55.1-158.5,83.9A335.84,335.84,0,0,1,889,219a349.69,349.69,0,0,1-80.2,4.9c-23.2-1.3-84.2-5.4-145.9-41.2-62.5-36.3-59-66.6-125.3-94.6a272.19,272.19,0,0,0-76.7-20c-40.9-4.4-73,1.8-91.7,5.5-13.8,2.8-33.8,6.9-57.9,17-14.5,6.1-47.2,22.2-56.1,26.4-13.8,6.6-13.7,6.5-15.7,7.3-19.3,7.1-71.9,26.3-129.9,6.8C68.5,117.3,43.3,90.4,33.3,78.3A174.82,174.82,0,0,1,0,15.2V451.3H2880V15.2A174.82,174.82,0,0,1,2846.7,78.3Z" transform="translate(0 -0.08)"/>
  <g id="lady">
    <g>
      <path class="cls-3" d="M1528.8,214.7c-13.8,5.6-31.3,3.9-43.5-4.8s-23.5-15.2-39.1-15.6c-9.7-.3-18.8,3.8-28,6.1-8.1,2-14.3,8.6-23.1,9.8-11.5,1.6-23.3-5.5-28.5-15.9s-4-23.3,1.7-33.4c4.2-7.3,8.1-12.8,3.4-21-1-1.8-2.3-3.4-3-5.4a14.06,14.06,0,0,1-.7-5.8c.4-10.6,8.5-18.6,13.8-27.3a18.06,18.06,0,0,0,2.9-6.5c1-6-3.8-11.2-6.4-16.8-8.3-18,5.9-38.4,19.6-49.2,8.1-6.4,17.8-8.9,26.6-14.1,4-2.4,7.6-5.3,11.7-7.6,7-4,14.7-4.1,22.5-3,22.2,3.1,47.5,19.3,52.7,42.6,3.5,15.8-2.2,34.1,13.4,45.1,4.7,3.3,10.7,5.3,13.9,10.1,6.8,10.2-3.2,25.2,3,35.8,1.4,2.4,3.5,4.2,5.4,6.2a50.84,50.84,0,0,1,13.7,39.6,25.42,25.42,0,0,1-2.8,10.1c-2.4,4.2-6.4,7.2-10.3,10-5.9,4.2-11.9,8.3-18.6,11.1C1528.9,214.6,1528.8,214.7,1528.8,214.7Z" transform="translate(0 -0.08)"/>
      <path class="cls-3" d="M1366.5,170.9c-1.2-3.7.9-6.9,3-10.1a42.31,42.31,0,0,0,2.4-4,13,13,0,0,0-.1-10.9,24.89,24.89,0,0,0-3.6-5.1,29.46,29.46,0,0,1-3.6-4.9,15.38,15.38,0,0,1-.5-13.4c1.9-4.1,5.4-7.1,8.8-9.9.7-.6,1.5-1.2,2.2-1.8,3-2.6,9.6-9.5,7.1-17.9a49.16,49.16,0,0,0-4.2-9l-1.8-3.3a45,45,0,0,1-5.4-19c-.2-7.1,2-13.9,6.2-18.6,3.6-4.1,8.5-6.7,13.6-9.2l4.2-2.1c6.1-3,12.4-6.1,18.3-9.7,3.9-2.5,7.4-4.7,10.2-7.6.7-.8,1.4-1.5,2.1-2.3a30.6,30.6,0,0,1,6.8-6.1c19-11.6,49-4.8,64.1,8.7a33.15,33.15,0,0,1,2.7,2.6c7,7.3,11.4,16,12.2,23.9.8,8.1,1,16,1,22.7,0,1.4,0,2.8-.1,4.1-.1,4.2-.3,7.9,1.3,12.1,2.4,6.6,5.5,10.5,9.6,12.5a28.85,28.85,0,0,0,6.1,1.8,42.09,42.09,0,0,1,4.8,1.2,19.94,19.94,0,0,1,13,17.6c.2,4.2-1,8.3-2.2,12.2-.5,1.8-1.1,3.6-1.5,5.4-1.8,7.8-1.1,18.3,6.2,24.5l-.9,1c-7.7-6.6-8.4-17.7-6.6-25.8.4-1.8,1-3.7,1.5-5.5,1.1-3.8,2.3-7.8,2.2-11.8a18.5,18.5,0,0,0-12.1-16.4,39,39,0,0,0-4.6-1.2,29.35,29.35,0,0,1-6.4-1.9c-5.9-2.8-8.7-8.9-10.3-13.3s-1.5-8.4-1.4-12.6c0-1.3.1-2.6.1-4,0-6.7-.2-14.6-1-22.6-.8-7.6-5.1-16-11.9-23.1a30.7,30.7,0,0,0-2.6-2.5c-14.7-13.1-44-19.9-62.5-8.5a30.47,30.47,0,0,0-6.5,5.9c-.7.8-1.4,1.5-2.2,2.3a57.59,57.59,0,0,1-10.4,7.8,191,191,0,0,1-18.4,9.8l-4.2,2.1c-5,2.5-9.7,5-13.1,8.9a25.91,25.91,0,0,0-5.8,17.7,42.43,42.43,0,0,0,5.3,18.4l1.8,3.3a49.25,49.25,0,0,1,4.3,9.3c1.9,6.4-.8,13.4-7.5,19.3-.7.6-1.5,1.2-2.2,1.9-3.3,2.8-6.7,5.6-8.5,9.5a14.11,14.11,0,0,0,.4,12.2,31.2,31.2,0,0,0,3.4,4.7,29.17,29.17,0,0,1,3.8,5.4,13.89,13.89,0,0,1,.1,12.1,46.36,46.36,0,0,1-2.5,4.2c-2,3-3.9,5.9-2.9,9Z" transform="translate(0 -0.08)"/>
    </g>
    <path class="cls-4" d="M1620.5,368.7a69.65,69.65,0,0,1-14.8,13.4c-29,20.2-63.7,34.1-98.1,43-30.7,8-62.9,7.6-94.3,4.5-21.5-2.1-42.8-8.8-63.5-14.9-21.3-6.4-42.3-13.9-62.2-24-15.6-7.9-29.7-17.8-32-36.5-.9-7.4.7-15.5,6.3-20.5,6.8-6,17.1-5.8,26.2-5.1,51.9,4,102.1,21.5,154.4,21.8,29.2.2,56.3-7.4,84.4-14.3,21.6-5.3,45.6-11.1,68.1-10C1615.3,327.1,1635.5,349.7,1620.5,368.7Z" transform="translate(0 -0.08)"/>
    <path class="cls-5" d="M1374.7,324.9c-.6-1.3-1.1-2.6-1.8-4a197.89,197.89,0,0,1-13.8-44.3c-1-5.5-2-11.5-6.2-15.2-5.8-5.1-17.1-4.4-24.3-3.5-3.4.5-6.9,1.6-8.9,4.3-3.4,4.5-3,14.7-3.2,20.1-.8,33,25.3,60.3,46.5,82.5,4.1,4.3,8.5,8.6,14.2,10.4s12.9-.1,15.3-5.4c1.8-3.9.7-8.6-.7-12.7a86.36,86.36,0,0,0-10.4-19.7A68.87,68.87,0,0,1,1374.7,324.9Z" transform="translate(0 -0.08)"/>
    <path class="cls-6" d="M1499.5,145.6a28.75,28.75,0,0,1-2.3,16.9c-6.8,14.2-23.7,16.9-37.9,17.5a93,93,0,0,1-15.8-.8c-4.6-.7-8.8,0-13.5-.1a50.93,50.93,0,0,1-26.3-7.9c-3.8-2.4-7.4-5.5-9.4-9.5-2.7-5.6-1.9-12.2-.5-18.2a39.21,39.21,0,0,1,3.6-10.1c1.9-3.3,4.7-6.1,6.3-9.6,3-6.5.5-14.2,3.2-20.6,2.1-5,7.3-10.7,11.7-13.9,5.9-4.3,13.6-5.6,20.9-5.1s14.4,2.7,21.3,5c5.5,1.8,10.2.7,14.2,5.2,3.2,3.6,2.1,9.4,3.1,13.8C1481.6,122.6,1497.2,130.3,1499.5,145.6Z" transform="translate(0 -0.08)"/>
    <path class="cls-7" d="M1398.8,210.4c-9.3,15.9-19.7,31.2-29.7,46.7-5.6,8.6-11.2,17.4-14.2,27.3-13.8-.3-27.6-3.3-41.1-5.8,2.2-18.3,11.8-34.8,20.4-50.8,9-16.6,18.7-32.8,27.1-49.7,6.9-13.7,19.7-30.1,36.9-21.9,13.2,6.3,11.2,24.5,8.4,36.3C1405.2,198.8,1402.2,204.7,1398.8,210.4Z" transform="translate(0 -0.08)"/>
    <path class="cls-5" d="M1502.9,324.9c.6-1.3,1.1-2.6,1.8-4a197.89,197.89,0,0,0,13.8-44.3c1-5.5,2-11.5,6.2-15.2,5.8-5.1,17.1-4.4,24.3-3.5,3.4.5,6.9,1.6,8.9,4.3,3.4,4.5,3,14.7,3.2,20.1.8,33-25.3,60.3-46.5,82.5-4.1,4.3-8.5,8.6-14.2,10.4s-12.9-.1-15.3-5.4c-1.8-3.9-.7-8.6.7-12.7a86.36,86.36,0,0,1,10.4-19.7A84,84,0,0,0,1502.9,324.9Z" transform="translate(0 -0.08)"/>
    <path class="cls-7" d="M1478.7,210.4c9.3,15.9,19.7,31.2,29.7,46.7,5.6,8.6,11.2,17.4,14.2,27.3,13.8-.3,27.6-3.3,41.1-5.8-2.2-18.3-11.8-34.8-20.4-50.8-9-16.6-18.7-32.8-27.1-49.7-6.9-13.7-19.7-30.1-36.9-21.9-13.2,6.3-11.2,24.5-8.4,36.3C1472.3,198.8,1475.4,204.7,1478.7,210.4Z" transform="translate(0 -0.08)"/>
    <g>
      <path id="SVGID" class="cls-8" d="M1507.6,340.1c-3.8-10.2-9.6-18.5-12.9-29-4.5-14.3-7.6-34.6-2.4-49.4,5.5-15.7,12.2-28.1,12.6-45.5.3-15-2.7-29.7-5.7-44.3-3-14.4-4.3-18.6-18.5-20.8-5-.8-10-2.1-15-3a149,149,0,0,0-25.8-2.2h-.6a148.14,148.14,0,0,0-25.8,2.2c-5,.9-10,2.3-15,3-14.1,2.2-15.5,6.4-18.5,20.8-3,14.6-6,29.3-5.7,44.3.4,17.5,7.1,29.9,12.6,45.5,5.2,14.8,2.1,35.1-2.4,49.4-3.3,10.5-9.1,18.8-12.9,29a4.42,4.42,0,0,0-.4,2.5,3.85,3.85,0,0,0,2.3,2.2c18.8,9.8,39.8,12.8,60.4,14.3,1.8.1,3.6.3,5.3.4h.8c1.7-.1,3.5-.2,5.3-.4,20.6-1.5,41.6-4.5,60.4-14.3a3.85,3.85,0,0,0,2.3-2.2A4.42,4.42,0,0,0,1507.6,340.1Z" transform="translate(0 -0.08)"/>
      <g class="cls-9">
        <path class="cls-8" d="M1484.3,154c.9-2.7,4.2-8.7,2.5-11s-7.9-1.9-10.3-1.8l-79.7,2.7c1.5,5.7,1.6,11,3.8,16.6a53.52,53.52,0,0,0,7.5,13.4,42.61,42.61,0,0,0,25.3,15.8c17.1,3.4,36-5,44.7-20.1A81.83,81.83,0,0,0,1484.3,154Z" transform="translate(0 -0.08)"/>
      </g>
    </g>
    <path class="cls-5" d="M1419.6,173.9c8.3,9.5,24.3,10.2,35.5,6.3,7.6-2.6,13-8.6,13.2-16.9.2-9.2-7.9-15.8-10-24.4-1.2-4.9-1-9.9-.9-14.9.1-5.8.2-11.6.5-17.4a64.23,64.23,0,0,0-16.5-1.6c-5,.2-10.1-.3-15.1,0a2,2,0,0,0-1.1.3,2.1,2.1,0,0,0-.4,1.1c-.7,7.8,0,15.8-.5,23.6-.5,7.2-2.1,14.5-6.3,20.4C1412.8,157.8,1414.1,167.6,1419.6,173.9Z" transform="translate(0 -0.08)"/>
    <g class="cls-10">
      <path class="cls-2" d="M1435,22.7a32.16,32.16,0,0,1,13.6-3.4,54.15,54.15,0,0,1,38.8,15,44,44,0,0,1,12.8,25.1c.7,4.8.4,9.5.5,14.2s.5,9.4,2.4,13.5a28.72,28.72,0,0,0,9.1,10.2c3.8,2.7,8,4.9,12,7.4a17.47,17.47,0,0,1,5.6,4.6,12,12,0,0,1,1.8,7.1,28.2,28.2,0,0,1-.9,7.1,47.66,47.66,0,0,1-2.6,6.6,13.93,13.93,0,0,0-1.3,6.6,21.73,21.73,0,0,0,1.9,6.6c2,4.2,4.5,8.3,6.5,12.6a38,38,0,0,1,3.9,13.6,35.06,35.06,0,0,1-1.7,14,32.9,32.9,0,0,0,1.4-13.9,39,39,0,0,0-4.2-13.3c-2.1-4.2-4.6-8.2-6.7-12.5a19.82,19.82,0,0,1-2.1-6.9,14.43,14.43,0,0,1,1.2-7.1,57.78,57.78,0,0,0,2.5-6.5,22.24,22.24,0,0,0,.8-6.8,11.52,11.52,0,0,0-1.6-6.4,17.28,17.28,0,0,0-5.3-4.3c-4-2.4-8.2-4.6-12.1-7.4a29.14,29.14,0,0,1-9.6-10.7c-2.1-4.5-2.4-9.4-2.5-14.1s.2-9.4-.4-14a43.54,43.54,0,0,0-12.3-24.5,50.09,50.09,0,0,0-24.1-13.6,54.09,54.09,0,0,0-13.9-1.8A31.65,31.65,0,0,0,1435,22.7Z" transform="translate(0 -0.08)"/>
    </g>
    <path class="cls-11" d="M1458,137.8a63.59,63.59,0,0,1-.7-13.8c.1-5.8.2-11.6.5-17.4a64.23,64.23,0,0,0-16.5-1.6c-5,.2-10.1-.3-15.1,0a2,2,0,0,0-1.1.3,2.1,2.1,0,0,0-.4,1.1c-.7,7.8,0,15.8-.5,23.6-.2,2.2-.4,4.5-.8,6.7.8.7,1.6,1.4,2.4,2a25.92,25.92,0,0,0,22.1,4A35.07,35.07,0,0,0,1458,137.8Z" transform="translate(0 -0.08)"/>
    <path class="cls-5" d="M1479.3,75.6a71,71,0,0,0-3.4-21c-8.9-26-41.5-31.9-60.9-12.9-21.6,21.2-12.5,71,10.8,88.2a25.92,25.92,0,0,0,22.1,4C1470.4,127.5,1479.8,99.6,1479.3,75.6Z" transform="translate(0 -0.08)"/>
    <path class="cls-11" d="M1479.2,53c-7-26.5-39.1-34.9-59.8-17.3a41,41,0,0,0-7.9,9.7c-2,3-4.8,5.3-6.5,8.7a30.39,30.39,0,0,0-3.3,11.1c-.4,3.8.9,7,1,10.6a12.78,12.78,0,0,1,4.4-10c2.2-1.9,5-3.1,7.5-4.5s5-3.4,6-6.1c8.2,10.8,21,14.1,33.5,17.2,10.5,2.6,22.1,9.2,22.3,21.5a9.15,9.15,0,0,0,.8,4,17.94,17.94,0,0,0,1.2-5.2c.2-2,.8-4,1.2-6a87.06,87.06,0,0,0,1.5-12.5A68.13,68.13,0,0,0,1479.2,53Z" transform="translate(0 -0.08)"/>
    <path class="cls-3" d="M1485.2,98.6a14.09,14.09,0,0,0,4.6-6.4c2.8-8.2,2.5-17.4,2.2-26.2-.2-4.9-.4-9.9-1.7-14.6a37.92,37.92,0,0,0-7.6-13.6A44.24,44.24,0,0,0,1445.3,22c-5.5.5-9.5,3.1-14.3,5.3s-10.2,3.4-15.2,5c-5.7,1.9-11.6,3.9-16.1,7.8a29.42,29.42,0,0,0-7.4,10.7c-2.1,4.8-2.3,10.2-1.7,15.4.5,4.3,1,8.8,2.9,12.8,1.8,3.7,5.7,6.2,9.2,8-.5-.3-.1-6.4-.1-7.4-.1-5.4.2-11,1.9-16.2s4.9-8.2,9.1-11.3a26.71,26.71,0,0,0,4.8-4.1c.7-.8,3.8-4.4,3.3-5.5a37.12,37.12,0,0,0,10.9,14.2c8.9,6.6,18.9,11.2,29,15.2.7.3,1.5.6,2.2.9a24.43,24.43,0,0,1,7.8,4.5c5.1,4.6,5.5,11.7,5.3,18.2a7.49,7.49,0,0,0,.2,2.1C1478.1,100.8,1483.2,100.2,1485.2,98.6Z" transform="translate(0 -0.08)"/>
    <polygon class="cls-12" points="1344.7 253.02 1343.1 256.82 1536.1 256.82 1534.2 252.52 1344.7 253.02"/>
    <path class="cls-5" d="M1438.9,442.6c7.2,1.7,14.9,2.3,21.6,3.5,3,.5,6.1,1.1,9.1,1.4a144.4,144.4,0,0,0,14.7.5H1495c1.9,0,4,0,5.7-.9,2.1-1.1,3.3-3.2,4.4-5.2,2.3-4,5-7.8,6.8-12,1.1-2.5,1.6-4.6,3.2-6.8s3.1-5,2-7.6c-1.3-3.2-5.4-4-8.9-4a63.46,63.46,0,0,0-8.7.5c-11.4,1.4-22.3,5.9-33.7,7.2-7.3.8-14.7.3-22-.1-5.8-.3-14.8-1.8-20,1.6-2.1,1.4-5.4,4.7-5.7,7.3-.3,3.3,3.4,6.7,5.7,8.5A47,47,0,0,0,1438.9,442.6Z" transform="translate(0 -0.08)"/>
    <path class="cls-13" d="M1511.8,430.3c.1-.2.1-.3.2-.5,1.1-2.5,1.6-4.6,3.2-6.8s3.1-5,2-7.6c-1.3-3.2-5.4-4-8.9-4a63.46,63.46,0,0,0-8.7.5c-11.4,1.4-22.3,5.9-33.7,7.2a109.33,109.33,0,0,1-18.1.1c-4.4,2-20.1,7.1-27.5,13.8a21.58,21.58,0,0,0,3.6,3.3,38.64,38.64,0,0,0,15,6.3,134.22,134.22,0,0,0,13.9,2.3c15.3-2.7,30.3-7.4,45.2-11.1C1502.5,432.7,1507.2,431.5,1511.8,430.3Z" transform="translate(0 -0.08)"/>
    <path class="cls-14" d="M1522.8,378.9H1356.3L1344.4,255a3.73,3.73,0,0,1,3.7-4.1H1531a3.73,3.73,0,0,1,3.7,4.1Z" transform="translate(0 -0.08)"/>
    <path class="cls-3" d="M1463.9,446.8c6.3-.6,14.4-1.9,18.7-6.6,3.3-3.6,4.6-8.3,4.6-13.2s-3.7-8.5-8-10.7c11.1-5.8,21.5-5.8,31.6-2a19.12,19.12,0,0,1,3.2,1.6c13.5,8.7,4.6,25.6-6.5,31.6a33,33,0,0,1-16.6,3.8c-4.6-.2-7.7-.7-12.3-1.2C1472.9,449.4,1470.1,448,1463.9,446.8Z" transform="translate(0 -0.08)"/>
    <path class="cls-15" d="M1524.1,382.4H1355l-12.1-123.9a3.75,3.75,0,0,1,3.8-4.1h185.8a3.81,3.81,0,0,1,3.8,4.1Z" transform="translate(0 -0.08)"/>
    <rect class="cls-14" x="1355" y="382.32" width="169" height="7.5"/>
    <circle class="cls-14" cx="1439.63" cy="318.23" r="11.7" transform="translate(902.53 1691.22) rotate(-81.1)"/>
    <path class="cls-5" d="M1400.2,397.3c10,5.8,20.1,11.7,30.3,17.1l.6.3c4.4,2.1,8.9,3.8,13.2,6a79.71,79.71,0,0,1,8.1,4.5c1.2.8,2.4,1.6,3.5,2.5a6.39,6.39,0,0,1,1.5,1.3,2.88,2.88,0,0,1-.1,2.4,7.61,7.61,0,0,1-1.2,1.9,23.58,23.58,0,0,1-7.4,5c-1.7.8-3.4,1.6-5.1,2.2a33.4,33.4,0,0,1-5,1.8,7.63,7.63,0,0,1-2.6-.2c-.9-.1-1.8-.3-2.7-.4-1.8-.3-3.6-.6-5.4-1-8.1-1.6-16.2-3.8-24.1-6.2s-15.7-4.9-23.6-7.2c-37.3-10.8-76.2-22.8-108.7-44.7-7.5-5.1-15-12.5-18.2-21.1-8.4-22.6,15.6-40,36.1-31.5,34.2,14.2,62.3,39.7,94.6,57.8C1389.3,391,1394.7,394.2,1400.2,397.3Z" transform="translate(0 -0.08)"/>
    <path class="cls-16" d="M1476.5,434.2c7.5-2.3,15-4.7,22.4-6.8,37.3-10.8,76.2-22.8,108.7-44.7,7.5-5.1,15-12.5,18.2-21.1,8.4-22.6-15.6-40-36.1-31.5-34.2,14.2-62.3,39.7-94.6,57.8-5.4,3-10.8,6.2-16.2,9.4-4.7,2.7-9.4,5.5-14.1,8.1" transform="translate(0 -0.08)"/>
    <path class="cls-11" d="M1465,405.5c-5.4,3.1-10.8,6.1-16.3,8.9s-38.5,14.3-29.5,26.2c1.8,2.3,5.1,2.6,8,2.6,16.8.2,33.2-4.1,49.3-9" transform="translate(0 -0.08)"/>
    <path class="cls-11" d="M1430.5,414.4c-3-1.6-6.1-3.2-9.1-4.9a96.31,96.31,0,0,1-15.9,2.8c-11.5.9-23-1.5-34.5-.8a61.38,61.38,0,0,0-8.6,1.2c-3.4.7-7.2,2.2-8,5.6a7.57,7.57,0,0,0-.1,1.5c8.6,2.7,17.3,5.3,25.9,7.7,11.7,3.4,23.5,7.4,35.4,10.5h.1c6.4-2.4,13.8-4.5,20.6-7.4a44.79,44.79,0,0,0,12.2-7.6C1441.2,418.8,1433,415.7,1430.5,414.4Z" transform="translate(0 -0.08)"/>
    <path class="cls-16" d="M1402.7,434.2c-7.5-2.3-15-4.7-22.4-6.8-37.3-10.8-76.2-22.8-108.7-44.7-7.5-5.1-15-12.5-18.2-21.1-8.4-22.6,15.6-40,36.1-31.5,34.2,14.2,62.3,39.7,94.6,57.8,5.4,3,10.8,6.2,16.2,9.4,4.7,2.7,9.4,5.5,14.1,8.1" transform="translate(0 -0.08)"/>
    <path class="cls-5" d="M1439.6,442.6c-7.2,1.7-14.9,2.3-21.6,3.5-3,.5-6.1,1.1-9.1,1.4a144.4,144.4,0,0,1-14.7.5h-10.7c-1.9,0-4,0-5.7-.9-2.1-1.1-3.3-3.2-4.4-5.2-2.3-4-5-7.8-6.8-12-1.2-2.8-2.5-5.5-.8-8.4a13.8,13.8,0,0,1,3.2-3.6,26.08,26.08,0,0,1,5.1-3.6c6.1-3.1,12.3-1.3,18.6.3,6.6,1.7,13.2,3.6,20,4.3,7.3.8,14.7.3,22-.1,5.8-.3,14.8-1.8,20,1.6,2.1,1.4,5.4,4.7,5.7,7.3.3,3.3-3.4,6.7-5.7,8.5A41.56,41.56,0,0,1,1439.6,442.6Z" transform="translate(0 -0.08)"/>
    <path class="cls-3" d="M1413.9,446.8c-6.3-.6-14.4-1.9-18.7-6.6-3.3-3.6-4.6-8.3-4.6-13.2s3.7-8.5,8-10.7c-11.1-5.8-21.5-5.8-31.6-2a19.12,19.12,0,0,0-3.2,1.6c-13.5,8.7-4.6,25.6,6.5,31.6a33,33,0,0,0,16.6,3.8c4.6-.2,7.7-.7,12.3-1.2C1404.8,449.4,1407.6,448,1413.9,446.8Z" transform="translate(0 -0.08)"/>
  </g>
</svg>
