<svg width="256" height="256" viewBox="0 0 256 256" fill="none" xmlns="http://www.w3.org/2000/svg">
<g clip-path="url(#clip0_1_8)">
<circle cx="128" cy="128" r="128" fill="#F4F4F4"/>
<path d="M194.054 95.2644C194.061 101.611 192.647 107.877 189.915 113.603C187.183 119.329 183.202 124.371 178.267 128.356L64.751 63.8955C64.3175 63.6471 63.9156 63.3491 63.5521 63.0036C62.9831 62.4459 62.5315 61.7798 62.2222 61.046C61.9129 60.3099 61.7526 59.5197 61.7526 58.7226C61.7526 57.1308 62.3848 55.6045 63.5092 54.4801C64.6336 53.3534 66.16 52.7212 67.7518 52.7212H151.531C162.809 52.7212 173.624 57.2031 181.599 65.1825C189.574 73.1596 194.054 83.9817 194.054 95.2644Z" fill="#18B4F4"/>
<path d="M194.054 161.445C194.056 167.034 192.956 172.568 190.82 177.729C188.685 182.893 185.553 187.585 181.604 191.536C177.655 195.488 172.965 198.622 167.806 200.76C162.647 202.9 157.115 204 151.531 204H67.7518C66.5641 203.986 65.4081 203.623 64.4282 202.952C63.4505 202.282 62.6896 201.336 62.2493 200.234C61.8067 199.132 61.7006 197.924 61.9467 196.761C62.1906 195.601 62.7731 194.537 63.6221 193.706C63.9608 193.368 64.3401 193.072 64.751 192.826L109.426 167.458L178.258 128.365C183.191 132.35 187.172 137.39 189.906 143.114C192.64 148.837 194.056 155.103 194.054 161.445Z" fill="#FD6B3C"/>
<path d="M178.267 128.356L109.426 167.458L64.7533 192.826C64.3243 193.065 63.9269 193.356 63.5724 193.697C80.606 176.219 90.1298 152.766 90.1094 128.356C90.141 103.941 80.6195 80.4842 63.5814 63.0036C63.945 63.3491 64.3469 63.6471 64.7826 63.8955L178.267 128.356Z" fill="#A97FF2"/>
</g>
<defs>
<clipPath id="clip0_1_8">
<rect width="256" height="256" fill="white"/>
</clipPath>
</defs>
</svg>
