<?xml version="1.0" encoding="utf-8"?>
<!-- Generator: Adobe Illustrator 25.2.1, SVG Export Plug-In . SVG Version: 6.00 Build 0)  -->
<svg version="1.1"
	 id="Layer_1" xmlns:cc="http://creativecommons.org/ns#" xmlns:dc="http://purl.org/dc/elements/1.1/" xmlns:rdf="http://www.w3.org/1999/02/22-rdf-syntax-ns#"
	 xmlns="http://www.w3.org/2000/svg" xmlns:xlink="http://www.w3.org/1999/xlink" x="0px" y="0px" viewBox="0 0 256 256"
	 style="enable-background:new 0 0 256 256;" xml:space="preserve">
<style type="text/css">
	.st0{fill:#7F54B3;}
	.st1{fill:#FFFFFF;}
</style>
<circle class="st0" cx="128" cy="128" r="128"/>
<g>
	<path class="st1" d="M195.8,111.9c-2.8-0.5-5.6,1-8.2,4.9c-2.1,3-3.5,6.1-4.2,9.3c-0.4,1.8-0.5,3.8-0.5,5.7c0,2.3,0.5,4.7,1.4,7.1
		c1.2,3.1,2.7,4.7,4.6,5.1c2,0.4,4.1-0.5,6.4-2.5c2.9-2.6,4.9-6.4,6-11.6l0,0c0.4-1.8,0.5-3.8,0.5-5.8c0-2.3-0.5-4.7-1.4-7.1
		C199.2,113.9,197.7,112.3,195.8,111.9z"/>
	<path class="st1" d="M206.6,79.4H49.3c-10,0-18,8.1-17.9,18v60c0,10,8.1,18,18,18h74.5l34,19l-7.7-19h56.4c10,0,18-8.1,18-18v-60
		C224.6,87.5,216.6,79.4,206.6,79.4z M111.4,158.2c0.2,2-0.2,3.7-0.9,5.2c-0.9,1.7-2.4,2.7-4.2,2.8c-2,0.2-4.2-0.8-6.2-2.9
		c-7.3-7.5-13.1-18.6-17.4-33.5c-5.1,10.1-8.9,17.6-11.3,22.6c-4.6,8.9-8.6,13.4-11.9,13.7c-2.1,0.2-3.9-1.6-5.5-5.4
		c-4-10.3-8.3-30.2-13-59.6c-0.3-2,0.2-3.8,1.3-5.3l0,0c1.1-1.5,2.7-2.3,4.9-2.4c4-0.3,6.3,1.6,6.8,5.7c2.4,16.4,5.1,30.3,7.9,41.7
		L79.3,108c1.6-3,3.5-4.6,5.9-4.7c3.5-0.2,5.6,2,6.4,6.6c2,10.4,4.5,19.3,7.5,26.9c2-20,5.5-34.3,10.4-43.2c1.2-2.2,2.9-3.3,5.2-3.5
		c1.8-0.2,3.5,0.4,4.9,1.6c1.5,1.2,2.3,2.7,2.4,4.5c0.1,1.4-0.2,2.6-0.8,3.8c-3.1,5.7-5.6,15.2-7.6,28.4
		C111.7,141.1,111,151.1,111.4,158.2z M159.7,145.9c-4.7,7.9-10.8,11.8-18.5,11.8c-1.3,0-2.7-0.2-4.2-0.5c-5.6-1.2-9.7-4.2-12.6-9.1
		c-2.5-4.3-3.8-9.5-3.8-15.6c0-8.1,2-15.5,6.1-22.1c4.8-7.9,10.9-11.8,18.5-11.8c1.3,0,2.7,0.2,4.2,0.5c5.5,1.2,9.7,4.2,12.6,9.1
		c2.5,4.2,3.8,9.3,3.8,15.5C165.8,131.8,163.7,139.1,159.7,145.9z M208.8,145.9c-4.7,7.9-10.8,11.8-18.5,11.8
		c-1.3,0-2.7-0.2-4.2-0.5c-5.6-1.2-9.7-4.2-12.6-9.1c-2.5-4.3-3.8-9.5-3.8-15.6c0-8.1,2-15.5,6.1-22.1c4.8-7.9,10.9-11.8,18.5-11.8
		c1.3,0,2.7,0.2,4.2,0.5c5.6,1.2,9.7,4.2,12.6,9.1c2.5,4.2,3.8,9.3,3.8,15.5C215,131.8,212.9,139.1,208.8,145.9z"/>
	<path class="st1" d="M151.2,117c-1.2-3.1-2.7-4.7-4.6-5.1c-2.8-0.5-5.6,1-8.2,4.9c-2.1,3-3.5,6.1-4.2,9.3c-0.4,1.8-0.5,3.8-0.5,5.7
		c0,2.3,0.5,4.7,1.4,7.1c1.2,3.1,2.7,4.7,4.6,5.1c2,0.4,4.1-0.5,6.4-2.5c2.9-2.6,4.9-6.4,6-11.6l0,0c0.4-1.8,0.6-3.8,0.5-5.8
		C152.6,121.9,152.1,119.4,151.2,117z"/>
</g>
</svg>
