<?xml version="1.0" encoding="utf-8"?>
<!-- Generator: Adobe Illustrator 26.0.0, SVG Export Plug-In . SVG Version: 6.00 Build 0)  -->
<svg version="1.1" id="Layer_1" xmlns="http://www.w3.org/2000/svg" xmlns:xlink="http://www.w3.org/1999/xlink" x="0px" y="0px"
	 viewBox="0 0 2500 2279.3" style="enable-background:new 0 0 2500 2279.3;" xml:space="preserve">
<style type="text/css">
	.st0{fill:#141742;}
	.st1{fill:#33BBFD;}
</style>
<g>
	<g>
		<path class="st0" d="M0,1634.9h125.9c103.5,0,167.7,70.5,167.7,169.7c0,99.5-64.5,169.7-167.7,169.7H0V1634.9z M71,1703.2v202.7
			h54.5c61.5,0,95-43.5,95-101.5c0-57.5-33.5-101.5-95-101.5L71,1703.2L71,1703.2z"/>
		<path class="st0" d="M512.5,1629.4c99.5,0,174.7,76,174.7,175.2c0,99.5-75.5,175.2-174.7,175.2c-99.5,0-174.7-76-174.7-175.2
			C337.7,1705.2,412.9,1629.4,512.5,1629.4z M512.5,1909.1c57.5,0,101.5-46.5,101.5-104.5c0-57.5-44-104.5-101.5-104.5
			c-58,0-102,47-102,104.5C410.4,1862.7,454.5,1909.1,512.5,1909.1z"/>
		<path class="st0" d="M1006.9,1634.9v211.8c0,83.5-50.5,133.2-129.7,133.2c-79.5,0-129.3-50-129.3-133.2v-211.8h71v217.7
			c0,34.5,22.5,58.5,58.5,58.5c36.5,0,59-24,59-58.5v-217.7H1006.9z"/>
		<path class="st0" d="M1088,1634.9h118c62,0,105.9,36.5,105.9,90.5c0,37-16,61.5-40.5,74.5c30,14.5,50,41,50,81
			c0,56-47,94-112.5,94H1088V1634.9L1088,1634.9z M1205.2,1703.2h-46.5v63h46.5c19,0,33.5-10,33.5-31.5
			C1238.7,1713.2,1224.2,1703.2,1205.2,1703.2z M1208.7,1834.7h-50v71.5h50c22.5,0,39.5-11,39.5-35.5
			C1248.2,1846.1,1231.2,1834.7,1208.7,1834.7z"/>
		<path class="st0" d="M1396.9,1974.4v-339.5h71v271.3h122.5v68.5h-193.5V1974.4z"/>
		<path class="st0" d="M1656.6,1974.4v-339.5h193.2v68.5h-122.5v66h112.5v68.5h-112.5v68.5h122.5v68.5h-193.2V1974.4z"/>
		<path class="st1" d="M2191.1,1634.9v211.8c0,83.5-50.5,133.2-130,133.2c-79.5,0-129.3-50-129.3-133.2v-211.8h71v217.7
			c0,34.5,22.5,58.5,58.5,58.5c36.5,0,59-24,59-58.5v-217.7H2191.1z"/>
		<path class="st1" d="M2272.1,1634.9H2388c66.5,0,112,40.5,112,107.5c0,67.5-45.5,108-112,108h-45v124.5h-71v-340H2272.1z
			 M2386.9,1703.2h-44v78.5h44c23,0,40-13,40-39C2426.9,1716.1,2409.9,1703.2,2386.9,1703.2z"/>
		<path class="st0" d="M435,2120.1h58.2c47.7,0,77.5,32.5,77.5,78.5c0,46-29.8,78.5-77.5,78.5H435L435,2120.1L435,2120.1z
			 M467.7,2151.7v93.8h25.2c28.2,0,43.8-20,43.8-46.8c0-26.5-15.5-46.8-43.8-46.8L467.7,2151.7L467.7,2151.7z"/>
		<path class="st0" d="M729.7,2120.1h32.7v156.8h-32.7V2120.1z"/>
		<path class="st0" d="M1044.9,2160.4c-10.5-5.7-25.7-10.2-42.5-10.2c-27.3,0-47.5,20.2-47.5,48.2c0,26.5,19,48.2,45.5,48.2
			c25.2,0,40.2-17.3,40.2-34.3c0-1-0.2-2.5-0.2-3.5h-40.5V2179h74.3c1.2,6,2,15,2,22.7c0,41.3-26.3,77.5-76.5,77.5
			c-45.5,0-78.2-35.2-78.2-81c0-46,34.3-81,81.3-81c16.3,0,32,2.7,42.5,7.5v35.5L1044.9,2160.4L1044.9,2160.4z"/>
		<path class="st0" d="M1231.7,2120.1h32.7v156.8h-32.7V2120.1z"/>
		<path class="st0" d="M1458.2,2151.7h-38v-31.5h109v31.5h-38v125.2h-32.7L1458.2,2151.7L1458.2,2151.7z"/>
		<path class="st0" d="M1761.1,2243.3h-56l-11.8,33.5h-36.8l58.2-156.8h36.8l58.2,156.8H1773L1761.1,2243.3z M1715.9,2211.9h34.5
			l-17.3-49L1715.9,2211.9z"/>
		<path class="st0" d="M1959.9,2276.9v-156.8h32.7v125.2h56.5v31.5L1959.9,2276.9L1959.9,2276.9z"/>
	</g>
	<g>
		<path class="st1" d="M1755.2,1120.7c-0.2-1-0.5-1.5-0.5-1.5v-0.2c-3.5-8.8-7-17.5-10.7-26c-139.3-340-278.4-680.2-417.7-1020.5
			c-2.3-5.2-4.3-10.7-6.5-16c-15.5-38-49-55.2-82.3-56.5c-33.2,1.3-66.5,18.5-82.3,56.5c-2.3,5.2-4.3,10.7-6.5,16
			C1009.4,412.7,870.2,752.7,731,1093c-3.5,8.8-7,17.5-10.7,26v0.2c0,0-0.2,0.5-0.5,1.5c-2.5,6.3-10,30,2.5,57.3
			c11.5,22.5,32.3,41.8,57.7,49.8c19,5.7,40.5,5.5,62.5-4.5c84-37.7,168-75.2,252-113c0,49.8,0,99.5,0,149.3
			c0,40.5,63.2,40.5,63.2-0.2c0-59.3,0-118.2,0-177.5h0.2V928.7c0-8.5-8.5-14.3-16.5-11l-87.7,35.7c-8.8,3.5-18.2-2.7-18.2-12.3
			V810.9c0-8,3.8-15.2,10.2-20l50.2-36.3c0,0-88.8-260.5,130.9-449.2c6-5.2,15-5.2,21,0c219.7,189,130.9,449.2,130.9,449.2
			l50.2,36.3c6.5,4.8,10.2,12,10.2,20v130.2c0,9.3-9.5,15.7-18.2,12.3l-87.6-35.6c-7.7-3.2-16.5,2.5-16.5,11v34.5l0,0
			c0,98.8,0,197.5,0,296.3c0,40.5,63.2,40.5,63.2-0.2c0-49.8,0-99.5,0-149c84,37.7,168,75.2,252,113c22.3,10,43.8,10.2,62.7,4.5
			c25.5-7.7,46.3-27,57.7-49.8C1765.2,1150.7,1757.7,1126.9,1755.2,1120.7z"/>
		<path class="st1" d="M1245.7,466.7c-4-5.7-12.5-5.7-16.5,0l-57.3,88c-4.3,6.5,0.5,15,8.2,15h25.5c0,265,0,529.9,0,794.9
			c0.2,40.5,63.2,40.5,63.2-0.2c0-264.7,0-529.9,0-794.7h25.7c7.7,0,12.5-8.5,8.2-15L1245.7,466.7z"/>
	</g>
</g>
</svg>
